<mxfile host="Electron" agent="Mozilla/5.0 (X11; Linux x86_64) AppleWebKit/537.36 (KHTML, like Gecko) draw.io/26.1.1 Chrome/132.0.6834.210 Electron/34.3.3 Safari/537.36" version="26.1.1">
  <diagram name="Page-1" id="st_c5SyLKlZa8vsFnx5o">
    <mxGraphModel dx="1562" dy="909" grid="1" gridSize="10" guides="1" tooltips="1" connect="1" arrows="1" fold="1" page="1" pageScale="1" pageWidth="850" pageHeight="1100" math="0" shadow="0">
      <root>
        <mxCell id="0" />
        <mxCell id="1" parent="0" />
        <mxCell id="Wp2VC6QCwjRFlCdOOu6L-5" value="" style="rounded=1;whiteSpace=wrap;html=1;arcSize=3;dashed=1;fillColor=none;" parent="1" vertex="1">
          <mxGeometry x="240" y="560" width="440" height="320" as="geometry" />
        </mxCell>
        <mxCell id="Wp2VC6QCwjRFlCdOOu6L-14" value="" style="rounded=1;whiteSpace=wrap;html=1;arcSize=3;dashed=1;fillColor=none;" parent="1" vertex="1">
          <mxGeometry x="250" y="640" width="190" height="200" as="geometry" />
        </mxCell>
        <mxCell id="Wp2VC6QCwjRFlCdOOu6L-3" value="" style="rounded=1;whiteSpace=wrap;html=1;arcSize=3;dashed=1;fillColor=none;" parent="1" vertex="1">
          <mxGeometry x="440" y="200" width="240" height="320" as="geometry" />
        </mxCell>
        <mxCell id="Wp2VC6QCwjRFlCdOOu6L-4" value="cert-manager" style="aspect=fixed;sketch=0;html=1;dashed=0;whitespace=wrap;verticalLabelPosition=bottom;verticalAlign=top;fillColor=#2875E2;strokeColor=#ffffff;points=[[0.005,0.63,0],[0.1,0.2,0],[0.9,0.2,0],[0.5,0,0],[0.995,0.63,0],[0.72,0.99,0],[0.5,1,0],[0.28,0.99,0]];shape=mxgraph.kubernetes.icon2;prIcon=ns" parent="1" vertex="1">
          <mxGeometry x="535" y="200" width="50" height="48" as="geometry" />
        </mxCell>
        <mxCell id="Wp2VC6QCwjRFlCdOOu6L-6" value="kuard" style="aspect=fixed;sketch=0;html=1;dashed=0;whitespace=wrap;verticalLabelPosition=bottom;verticalAlign=top;fillColor=#2875E2;strokeColor=#ffffff;points=[[0.005,0.63,0],[0.1,0.2,0],[0.9,0.2,0],[0.5,0,0],[0.995,0.63,0],[0.72,0.99,0],[0.5,1,0],[0.28,0.99,0]];shape=mxgraph.kubernetes.icon2;prIcon=ns" parent="1" vertex="1">
          <mxGeometry x="435" y="560" width="50" height="48" as="geometry" />
        </mxCell>
        <mxCell id="Wp2VC6QCwjRFlCdOOu6L-7" value="" style="rounded=1;whiteSpace=wrap;html=1;arcSize=3;dashed=1;fillColor=none;" parent="1" vertex="1">
          <mxGeometry x="720" y="200" width="440" height="680" as="geometry" />
        </mxCell>
        <mxCell id="Wp2VC6QCwjRFlCdOOu6L-8" value="nginx-gateway" style="aspect=fixed;sketch=0;html=1;dashed=0;whitespace=wrap;verticalLabelPosition=bottom;verticalAlign=top;fillColor=#2875E2;strokeColor=#ffffff;points=[[0.005,0.63,0],[0.1,0.2,0],[0.9,0.2,0],[0.5,0,0],[0.995,0.63,0],[0.72,0.99,0],[0.5,1,0],[0.28,0.99,0]];shape=mxgraph.kubernetes.icon2;prIcon=ns" parent="1" vertex="1">
          <mxGeometry x="815" y="200" width="50" height="48" as="geometry" />
        </mxCell>
        <mxCell id="Wp2VC6QCwjRFlCdOOu6L-9" value="cert-manager" style="shape=image;verticalLabelPosition=bottom;labelBackgroundColor=default;verticalAlign=top;aspect=fixed;imageAspect=0;image=data:image/png,iVBORw0KGgoAAAANSUhEUgAAAYEAAAG8CAYAAAA4vRlXAAAACXBIWXMAAA7EAAAOxAGVKw4bAAAADXRFWHRsb2dpY2FsWAA0MC44D3aRQAAAAA10RVh0bG9naWNhbFkANDAuOMQqQuUAAAAPdEVYdHNjcmVlbgBIRE1JLUEtMFgKrxMAACAASURBVHhe7d13QJVl/wbwCwfgQBCcKIgKuLeoDPdW3GnkQM3K0TBNy+rtbZelZtabZe6NlRvFUeYC3OBWhgPcggtwgMrvD8WffXMwzjPO81yff/K97mPnNQ/PdZ5x37cNgMzMzEwQmVVmJhC6NgZR+y8gI+MeatUsjY7tKsPBwU6+lMhwCsiAyEx++GkXpvxvF5Kv3PxHXrBgPrw5ohH++0Gzf+RERmMDngmQCV2/fgevjliNDX+ekEP/UK9OGfw6NRBens5yiMgQWAJkOikpd9Dzxd+xe+85OfREbuWLYdmSPiwCMqR8MiAyuldHrMl2AQBA4pkbeGX4aqRn3JNDRFaPJUCmMn5iONZtiJPxc+0/cBFj3tsoYyKrx8tBZBpR0RfQsv08GefIgtndEdjJW8ZEVotnAmQa4yeGyyjHvvxmu4yIrBpLgExh/cZ4rN8YL+McO3osCTNmR8mYyGqxBMgUfv51j4xybeq03TIislosATK8HTvPYPPW0zLOtRMnr+G3pUdkTGSVWAJkePMXH5RRns1feEBGRFaJJUCGlpJyByG/HZJxnm0LT8DhI5dkTGR1WAJkaMtWHsO9e8o8Ar1s5XEZEVkdlgAZ2srVyh2olfx3E6mFJUCGlZR8E5s2n5KxxcTFX8HeqPMyJrIqLAEyrI3PWSHUEtR4DyIlsQTIsJQ8C8iyafNJGRFZFZYAGdbW7ZabG/A0u/acw9Vrt2VMZDVYAmRIh49cxsVLaTJWRERkooyIrAZLgAxpx64zMlLMzt1nZURkNVgCZEh7oy7ISDF79vEJIbJeLAEypKho9Q7Mar4XkaWxBMhwbt++i6PHkmSsmFu37uJYTLKMiawCS4AM54iKBZDlyJHLMiKyCiwBMpzjx9UvgZhYngmQdWIJkOHExV+VkeJi467IiMgqsATIcE6cUr8EtHhPIktgCZDhnD59XUaK0+I9iSyBJUCGk3hG/QPylau3kJqaLmMi3WMJkKHcSb+Hy0k3ZayKs+dTZESkeywBMpSLF1NlpBot35sot1gCZChanQUAwOWkWzIi0j2WABlKkoYlkJSkzqqlRJbEEiBD0XJtfy3fmyi3WAJkKDdu3JGRaq5f1+69iXKLJUCGkpKq3YGYj4iSNWIJkKHcvHlXRqpJS2MJkPVhCZCh3LyZISPV3LqtXQER5RZLgAzlzh3tDsRavjdRbrEEyFAy7t6XkWrupN+TEZHusQTIUO5qWAL37mXKiEj3WAJkKDY2NjJSjYZvTZRrBWRgRhcvpeHPv07geGwybt3KgJOjPby8XNCooSs8KjjJl5OOFSyg3fcaLd+bcm9f9HnExFzB5aQ05M+fD+VcHdDYpxzKlCkqX2pIpi+BD/77N6ZO2y3jR+rVKYPevaqjX1BNODray2HSGVtb7Q7Ednam/3GyGhv/OoGly49i7fq4p04w7NalCsaN8Ue1qiXkkKGY9lObkXEfPV/8DdvCE+TQP0Ttv4Co/Rfw6RdbMHxoQ7z1eiM4Fy8kX0Y6YW9fUEaqsbPLLyPSmcVLDuHn6Xtx4OBFOfQvK1cfx5+bTmDJ/F4I8HeXw4ah3dcmjb05Ouy5BfC4O+n38P2PO1GrwTT8OHWXHCadKFxIu+81RQrbyoh0Yv3GeLRqPw/D31qbrQLIkpaWgWFvrkVamnbzT5RmyhKIiDyDkN8Oyzhb0tLS8dGnm9Gq/Txsj8h+iZA6iha1k5FqihTR7iyEniwp+RZGjFyLF/svxb7oC3I4W86cvYHvpuyQsWGYsgRCfj8koxzbF30BgT1C8MXX2+QQacjBQbtv48WKaVdA9G9LVxyFX/NZWBSS95/3hSEHZGQYpiyBTZtPySjXJn4fiU7dF+N4bLIcIg04aXjzXsv3pn9678M/MWToaly6bJk9Hi5cTENULs8k9M50JZB85RbOnL0h4zyJiExEi7ZzsXTFUTlEKnN21u6mvZbvTQ/En7iKDl0XYdqMfXIoz44eS5KRIZiuBC5cUGYz8Fu37mLI0NUYPzFcDpGKSrhodyDW8r3pwWOfbTstwI6dZ+SQRZxT6NihNdOVwM1byi7yNX5COF5/O0zGpJJSpbSb4KPle5vd3AX70bvvH7hyVbl9nrVcoVZJpiuBfPmUn9u/cPFB9On3B24pXDj0byVcCsG2oDbP65c1yQxTvZk0JRIj31kvY4vLZ9B1QUxXAkWLqvP0yIY/T6B77yUWuzFF2VeunIOMFGdjA7iWVf99ze7TL7fi86/UeULPwcGYT3+ZrgRKligsI8Xs3H0WvYJ+x7lzxryWqFfubo4yUpy7myMXkFPZB//dhMk/qPf8fqmS6h071GS6EnAuXkjVNYAOHrqE3v3+wPnzqXKIFKLFon9avKeZffDfTZg6bY+MFaXFlws1mK4EAKCKl4uMFHX4yGUEBS9F8hXlblrR/6tcqbiMFKfFe5rVp19uVb0AAKByZWP+HZuyBGrWKCkjxe0/cBH9By/n7lMq8PZylpHivFX+YmFWEyZHqHoJKEuZMkVRprQxb/ybsgTq1S0jI1VE7jiDgUNWypgsrGoV9Uu+ahVjLzesBzNmR+HL8dtlrIoG9crKyDBMWQI+DcvJSDXrNsThzVHrZEwW5FHBEY6O6j7JUaO6+sVjJqtCYzBm3EYZq6axj3bHDKWZsgSqervA1VW7x/nmLzqAr7/V5huNWdSppd7Znrubo6pPnZnN7r3nMGTYKhmrys+3vIwMw5QlAAAtm3vISFXfTIqwyOqG9GT166lXAmq+l9lcupyGoa+vQUbGfTmkmmLF7NCwvquMDcO0JdCmZUUZqW7EyLXYseusjMkCfBqo90PbSMPLi0Y3/M21OHHyqoxV1am9p4wMxbQl0KFdZeTPr/3snjfeDsP160/e45Ryr0lj9U7fGzdiCShh3H824a+/T8pYde3bVpaRoZi2BAoVKojATt4yVl1c/BW8OZoLzlmai3MhVZ4CK+5kb+gnR7Qyd8F+/DJd/bkAkp1tfnTu5CVjQzFtCQBAj65VZaSJVaExmPh9pIwpj1o085CRxbVs4SEjyqN90edVWRAuO7p3rarZgoRq0W5Xbh3o3rUKXN4rpIuZvF98vQ0N6pXV/Ia1tbh3LxOxcck4dz4FaWkZSEtLR+rDf968eRepaemIj7/y2O+wAZD52P8WbGyAzEw8eI28TJj1e/895lbOEadOX+OyERaSmQm8PWaDjDXTs7s+vigqyQZAZmbmM344DE6LNUiexqOCEyI2D0bhwtywPMuNG3dwPDYZsbFXcDw2CTGxVxATm4z4E9reLJRsC+aHl5czvL1c4O3pAk/P4vD2dIG3lzMKFeLfZ3aNGrses+ftl7EmPCo4IXrXazI2HNOXwJGjl+HXYraMNdPvpVr46fuOMja88+dT/3GQf/DPJFy4aP1LcZcvVwzeDwvCs7Lzg197uqAM9x/4h5DfDmHYm2tlrJkP3gvAu6P9ZGw4pi8BAHix/1Ks3xgvY838OjUQfXpVl7Fh3L59F9sjErF56ylE7jiD47HJSE1Nly8zPAcHW3h7usDfzw2tW1ZEU393VTY90qOz51Lg23wWbtzQz5NyR6OHo6wJ9ohgCQBYtzEeQf2XylgzzsULYXfEK3AxyMbl9+9nYtfus9gemYjNW05je0SCfAkBKFAgH1q3rIhWLTzQ1N8d1auZZymK4CErsSr0uIw1Y6YzcpbAQ607zMfeqPMy1kzfoFqYOsV6P4T7os9j1+5zj77xm/Gbfl5VcHdEm1aV4O/nBt9G5Qz7rXTugv26eRooy9/rg1V5xFgPWAIP/bb0CF4bESpjTc2f1R1dOms/lyE7Dh+5hJ27zz34xh+RiDNnb8iXUB75+7nBv4kbmjQuB78mbrC3t/6H+y5cSIVPwAykpOjnS0KXzt6YP6u7jA2LJfCYZm3m4sDBizLWTOVKxbE7/BXdXieO3HEGoWGx+GvTCRyLSZbDpKASLoXh26Q8mgW4o1uXKihVsoh8iVUY9sYahPx+WMaaClvZF75N1JtxrjWWwGN+X3YUrw5fLWNNjXqrMT7+sLmMNXPi5FWsCYvFmrBYrnukE87FC6Fblyro1qUKWjSrIId1a01YLPoNWi5jTZntLABgCfxLu84LsGvPORlravumQahZo5SMVXPrVgZCHx7414TFarqiIz1bY59y6NalCroGeqN8uWJyWFeaNJuFY8eTZKypP8MGoGF9cy0DwhIQ9PakEAB06uCFRXN7yFhx28ITsGZtLELDYnmN38oUKVLwwdlBYBVdLoA2acoOfP7VVhlrqm9QTUyd0knGhscSeIJ+g5ZjTVisjDW1YHYPBKqwkFVs3JVH3/h379XXGRHlTt06ZdAt8MHZQeVK2m+Wfv58Kuo0moZ0ne23HbXzNVT0MN/yHyyBJzhw8CKatZkrY03VrlUaW/8cKGOLCfnt0KNLPvw4GFPBgvnQLfDBvQMtnzob/e4GzJobLWNNvTvaDx+8FyBjU2AJPMWHH/+Nn37ZLWNNTZ7QHoOD68g4T+bM34858/cjev8FOUQGVq1qCXQN9MbLA+uhdCn1niw6eOgSmraeI2NNeVRwwr4dr+r2KTylsQSe4tatu6jvOx3nz6fIIc24uzniwJ6hMs4VHvwJAFxdHTA4uC4GB9dBCRfl90keMnQ1lq44KmNNzfilC17oUU3GpsESeIbFSw5h+Fv6WdAKAL7+vBWGv9ZQxtnGgz89iVv5YhgcXBcvD6wLJyd7OWwRe/adR5uO82Wsqa6B3pg301yPhEosgefoO3AZ1q6Lk7Fmyrk64HDUcBk/Fw/+lB0eFRzx8sB6GBxcBw4OdnI4T15+bRWWrTwmY80UKJAPu7YPQaWK2t8s1xJL4Dni4q+iod90GWtq4vi2eGVwPRk/EQ/+lBuelZ0xOLgOXh5YD4UK5X15ikOHLyGg1RwZayqvZ9VGwRLIhqnT9uCD/26SsWaqeLlg5/YhMv4HHvzJEqp4uWDwoLoYHFwXdra532bx7THrMWe+PjaLAYA2rSrij8W9ZWxKLIFs6vnib9i0+ZSMNTNnejd071pFxjz4kyKqVyv56Mwgf/6cPUVz6XIavGv+JGPN5M9vg8gtQ+Dt5SyHTMnUG83nxNdftEbBgvr5zzV3wT+/Vf3190l06r4Yb49ZzwIgizty9DLGvv8nWrSbm+PtH+cvOiAjTX37VVsWwGN4JpAD8xYewFuj18lYM9s3DYKrqwMmfb9Dd3MayNj8/dwwdpQvWjTzkEP/0sB3um72hO7Tqzp+nRooY1NjCeTQW6PXYd5CfXyzade2MhISrutuES4yj1FvNcHYUb4oXLigHAIAbPzrBHr3/UPGmqhcqTi2bByIokVt5ZCpsQRy6N69TLRoNxcHD12SQ0SmVK9uGbw72g8d23vKIQx/cy0W/3ZIxppYvSwITf3dZWx6+rnIbSXy57fBD5M6wCZn98aIDCsq+gJeCl6G9z78C0nJNx/l6en3sHylPmYHf/lpSxbAU/BMIJcWLj6I198OkzFpoEzpovCs7AwHB1sUc7CFg4MdihWzg0NROzg42D7M7eBQ9LGxh68DgNTUdKSk3EFKSjpSU9NxI+UOUlIf/DorT0lNR0rq/7/m/IVUxMdfwR2drYSptSpeLhj7jh9e6FENy1cew+DXVsmXqM5Mm8bnBksgDz7+fAum/G+njJVhA8DEf00FC+aDZ2VneHk6w9vTBZ6eD37tVdkZxYpZdmZrTiSeuY74E9cQF38FcfFXEH/iKuLir+DkqWvypabSv28tXL9+G6vXaLske6OGrtiwpr+M6TEsgTwa8PIKrF4TI2PKJRsbwN/X/cEB3tMZnpWd4e3lDI8K1rXO+/37mYiLv4r4E4+Xw1Vsj0iQLzUsGxsbaHlsKeFSGOtD++liDwU9Ywnk0c2bGejYbRH2H9DPBvXWxLZgfvj7ucHP1w0Bvm5o0ri8oe+3ZGTcx9btp7Fl22ls3noaBw7yc6OUZUv6oFULDxmTwBKwgNi4K+jcfTEuXU6TQyQULlwQ/r5u8G1cHo19ysGnoSts87AcgbU7fz4V4TsSsT08AVu2nTb4ZaRMPDjkKO9/kzuif99aMqYnYAlYSHhEIgJ7Lgb/U/6Tg4MtGvuUQyOfcmjU0BWNfcqhUKEnP1NOwIGDlxCxIxERO84gIjLxH0/bUPZ89H5TvPO2r4zpKVgCFrR6TQwGvLxCxqbUsrkHugZWQZfOXqpsVmJEt25lYFt4IlaGHseq0BikpNyRL7FSyp0RvDHcB1980lLG9AwsAQtbFHIQI0aa89FRjwpO6BrojS6dveHTwFUOUx6cO5eClaHHsTI0Bjt2npHDVijrmGO5MhgcXBeTJ7STMT0HS0ABs+dFY9TYDTJ+MuW+FKmmS2fvR9/67e3yvvY8PdvW7aexKjQGK1cfx+Uka79cZJkfgL5BNTF1SicZUzawBBQyc04U3nlvo4wNo2aNUuga+ODgX9XbRQ6TCpKv3HpYBseweetpOWwafYNqYeoUTgbLLZaAgvS26mhe2dgAQX1qoltgFXRoV1kOk4Z27TmHlauPY+Xq4zhz9oYcNqyB/etgyqT2MqYcYAkobOmKoxgydLWMrUrBgvkwsH8dBPerjdq1Ssth0pGbNzOw5I/DmDknGocOW9sihzm7NPT6MB98+SlvAucVS0AFmzafRN+By3H79l05pGv29gUwaMCDg3/1aiXlMOlYesY9zJoTjRmz9yEuXh9r+Wff88vgvx80w+iRTWRMucASUMH7H23Cz7/ukbFuOTjYIbhfbQT3r40qXrzeb81SUtIxc04UZsyOsrLLRE9/euiXHzshqE9NGVMusQQUNmLkWiwK0cd66s9T3MkewQ8v+3C9FWO5nHQTM+dEYebsKKt9osizsjP+930HNGlUXg5RHrAEFNR/8AqErtX/4nIlSxRGcL/aGDigDtzdHOUwGciZszcwY3YUZs6JQkpKuhzWrZ7dq+H7Ce00XTHWqFgCCunSMwTbwvW9YmRxp0IY+kp9BPerDVdXBzlMBhYXfxUzZu/DrDnRSM/Q954ITo72CJnfE00a8wxACSwBC8vMBFq0m6v7VUV7da+GMaN8Ua1qCTlEJnLo8CXMnBOF2fP2yyFdKVmiMGb/2hUB3B3M4lgCFpSamo6AVnNw6rR+V4Ks6OGEMW/7ot9LXGGR/t+6jfGY+F0k9uw7J4d0w8HBFovn9mQRWBhLwEIuXEyFX/PZuHL1lhzSjVcG18OYt31RpkxROUSEO+n3MGFSBCZ+HymHdMPONj+WhvRmEVgQS8ACTpy8Ch//Gbh3T5//HevXLYsxo5qgUwcvOUT0L+ERiZgwORKbt56SQ7oRuiyIRWAhLIE8OnjoEpq2niNj3Rjzti/GjPKFvT0XdqOc+f7HnZgwORJpafp8iohFYBksgTzYsessOnRZKGNdaNXCA2Pe9oWfr5scIsq2/Qcu4tvvIrAmTNsN45+GRZB3LIFcOnX6Guo2+lXGmitcuCA+fC8Arw/zkUNEuTZjdhQmTo7EhYupckhzLIK8YQnkQkbGfZQsP1HGmmvUsBw++7gFmjQqJ4eI8iz+xFVM+C4CIb8flkOaYxHkHksgFxr4Tkf8CX0tyjVoQB18/nELODhwRiUp65cZezHuw79krLmNa/tzR7tcYAnk0KBXV2HFqmMy1oydbX58/klLvDakvhwiUsy6jfF49/0/kZB4XQ5p6kLCaO5ul0P5ZEBPN/H7SF0VQL26ZbBsSR8WAKmuQ9vKWLeqL5o3rSCHNOXjN1NG9BwsgWxa8sdhfPH1Nhlrpt9LtbBsSR/4+/HpH9KGq6sDVv7xIgYNqCOHNJN45jqGDF0lY3oGXg7Khr+3nEKPPr/JWBP58tngi09aYsTQhnKISDN6u0/wzZetMfSVBjKmJ2AJPMfhI5fh33K2jDVRs0YpfPFJC7Ro5iGHiDR3PDYZXXuG4OKlNDmkiaUhvdG6ZUUZk8ASeIaLl9LQ7YUlOHY8SQ6prnvXKvj2qzYoVbKIHCLSlU7dFyMiMlHGmti5fQh3x3sO3hN4isxMYOQ763VTAHOmd2MBkFVYu+IlfDiuqYw18dKAZbpd9kIvWAJP8dbodVi3IU7GqssqACJrMnaUL0KXBclYdSdOXsU7722UMT2GJfAEn3+1DfMXHZCx6lgAZM0C/N11UQQhvx/G519tlTE9xBIQlq08hklTtF9PnQVARqCXIpg0ZQdmzY2WMYE3hv8hIfE6uvZaovnOYCwAMprt4QkI7BkiY9X9tvAFtGtTScamxjOBx3zy+RYWAJEC9HJGMPrdDThy9LKMTY0l8NBPv+zGspXaLgkxoG9tFgAZlh6K4MzZG/hi/HYZmxpLAMC+6Av47EttbxyNGNoQP07uIGMiQ9FDEaxdF4ufftktY9NiCQD48OO/cSf9noxV894YP3z1WSsZExmSHorg6wnhiN5/QcamZPoS+PDjvxG5Q7vZjcH9auP9sQEyJjI0rYsgNTUdX08Il7EpmboENvx5QtPTwjatKuKH73gJiMxJ6yJYvzEeP/y0S8amY9pHRO+k30PjgJmaPQ1UvVpJRGweLGMi05m/6ADeHLVOxqqwty+AP9f2R80apeSQaZi2BC5eTMP1G7dlrIr8+fOhoocT8uWzkUNEpnQ56SauXr0lY1UUKWKLcq4OMjYN05YAERGZ/J4AEZHZsQSIiEyMJUBEZGIsASIiE2MJEBGZGEuAiMjEWAJERCbGEiAiMjGWABGRibEEiIhMjCVARGRiLAEiIhNjCRARmRhLgIjIxFgCREQmxhIgIjIxlgARkYmxBIiITIwlQERkYiwBIiITYwkQEZkYS4CIyMRYAkREJsYSICIyMZYAEZGJsQSIiEyMJUBEZGIsASIiE2MJEBGZGEuAiMjEWAJERCbGEiAiMjGWABGRibEEiIhMrAAALAo5JHOLcncvhgA/dxkrLiHxOraHJ8rYogL83eDu5ihjxajxZ9KLvkE1ZaQYpX8GAHX/PHqRk/+uav8sWbucHgue9vkrAAAjRq6VuUX1DaqlSQksCjmE8RPDZWxRocuDVP3gbg9PVPzvSy/UPCiMnxiOhMTrMrYYdzfHp/4QGlVC4vUcfVbd3RxV/3myVtsjEhDYI0TGz/S0zx8vBxGRLiQkXkdgjxBsj0iQQ/SY3BTAs7AEiEg3EhKvY8RbYRg/QdkzeGu1KOSQRQsAYAkQkc4kJF7HoiWHWATCopBDObq8ll0FZEBEpLWExOuP7ueNG+svRs1nxMgwLAo5KGOLYAkQkW6xCIDAniHYHq7cfRJeDiIiXRs/MRwjRobJ2BSULgCAJUBEVmBRyEHUbjhNxoaVkHhdlQIAWAJEZCUSEq+jdsNpis7n0IMH8yvCVCkAgCVARFYkay6BUYsgq+jUKgCAJUBEVsaoRbA9IkGTS14sASKyOllFkJO1ifTM0rOAc4IlQERWKWsugbVPKtOyAACWABFZMWufXazEMhA5xRIgIqtmrWcE4yeEK7IMRE5xxjARGYI1zS5WchmInGIJEJFhjJ8YjoQzNzB1Skc5pBtqTQLLLl4OIiJD0evsYjVnAecES4CIDEdvs4vVngWcEywBIjIkvUwqy/r/occCAHhPgJ4gdHmQJntCE1la1gFYq72LtZ4DkB08EyAiQ9NqdrE1FADAEiAiE1B7LoG1FADAEiAik1CrCPQwCzgnWAJEZCpKFoFeZgHnBG8ME5HpKDG7WE+zgHOCJUBEpmTJ2cV6nASWXbwcRESmZYnZxdZcAABLgIhMLrezi/W6DEROsQSIyPRyOrtYz8tA5BRLgIgIjy3vEPHsA3vWmYMRCgBgCRARPZKQeB0j3gp76iOkWm0GrySWABHRYxISn7xlpTXNAs4JVR4R3R6uTXtm9/oeEdHjsmYXAw/mEiwKOWR1k8CyS5US4MGYiKxR1lwCa5wEll2qlABZl0VLDmPRksMyVty4MX6aLPdL9CxGLgCAJUBPoNWHftwYPxkRkcJ4Y5iIyMRYAkREJsYSICIyMZYAEZGJsQSIiEyMJUBEZGIsASIiE2MJEBGZGEuAiKyWEWaYa/1nYAkQkdVyd3fEgT1DNT+Q5pa7m/b//1kCRGTV3N0cEbo8SNMDaW4E+LvjwJ6hMlYdS4CIrJ61FUGAvztClwXJWBMsASIyhKwiCPB3l0O60jeolm4KAGAJEJGBuLs5YuqUjhg3xl8O6ULfoFqYOqWjjDXFpaSJyFDc3RzRN6gmgAebwujF1CmdHv3/0hOWABEZjrubI8aNfXA2oIciCF0ehAA/fV6m4uUgIjKscWP9Nb80pOcCAFgCRGRw48b6Y+qUTjJW3KMb1TouAIAlQEQm0DeopqrP5Lu7OWLqDx11XwAA7wnQE4wb448AfzcZK85anvEm65Q1OzewRwgSEq/LYYuxtjkLqpSAVv8xlPyLNrIAfzer+AZDlFNZB2ilikBPk8CyS5USCPB31+TZ2PETwnXxZAAR6UdWEYwYGYbt4QlyONessQAA3hMgIhOy9KQyay0AgCVARCaVNaksr0Wgt2UgcoolQESmlTWpLLdFMG6MvyaXui1JlXsCRER6lpvZxXpdBiKneCZARIScTSoLXR5kiAIAWAJERI9kZ1KZNcwCzgmWABHRY7Imlcn5TdayDEROsQSIiAQ569ealoHIKZYAEdETPPrm/3AvYCMWAMCng4hUo8QyBbkhL3PQ07m7OVr1HIDsYAkQqSAh8TpqN5wmY9VlXe8mysLLQUREJsYSICIyMZYAEZGJ8Z4A/cuiJYexPTxRxqrLmspPRMphCdC/LAo5KCNN9A2qySdZiBTGy0FERCbGEiAiMjGWABGRibEEiIhMjCVARGRiLAEiIhNjCRARmRhLgIjIxFgCREQmxhIgIjIxlgARkYmxBIiITIwlQERkYiwBIiITYwkQEZkYS4CIyMRYAkREJsYSICIysQIAEODvLnOL8b/n4wAAGh9JREFUci9fTEaqcHdzVP7PpvL2h+7uxRT/M5lRgL87EhKvy9hw1P68Kv1ZDfB1k5FV0vLzZwMgMzMzU+ZERGQCvBxERGRiLAEiIhNjCRARmRhLgIjIxFgCREQmxhIgIjIxlgARkYmxBIiITIwlQERkYiwBIiITYwkQEZkYS4CIyMRYAkREJsYSICIyMZYAEZGJsQSIiEyMJUBEZGIsASIiE2MJEBGZGEuAiMjEWAJERCbGEiAiMjGWABGRibEEiIhMjCVARGRiLAEiIhNjCRARmRhLgIjIxFgCREQmxhIgIjIxlgARkYmxBIiITIwlQERkYiwBIiITYwkQEZkYS4CIyMRYAkREJlZABmZz8tQ1fPH1Nhmr6ucfO8HWNr+MiQxt+FtrkX7nnoxVM2JYQzSoV1bGpmP6Eqjo4QSfhq4Y95+/5JBqlq44inMnR6Fw4YJyiMiQPKr8gGvXbstYNUNfqc8CeIiXgwAMe7UBenavJmNVuVacjAsXU2VMZDhVav2kaQHUrFEK748NkLFpsQQe+vC9AJQuVUTGqqpaeypi467ImMgwajWYhouX0mSsqvfH+sPJyV7GpsUSeKhypeL49KPmMladj/8M7Iu+IGMiq9fAdzoSz1yXsao++U9zdO7oJWNTYwk8JqhPTbw8sK6MVdeq/Txs2XZaxkRWy7f5LMSfuCpjVQ3oWxtvv9lYxqZnAyAzMzNT5qZ15eotdO21BIcOX5JDqlswuwcCO/FbC1m3Fu3mIXq/tme3fr5uWLviJRkTeCbwL87FC2HSN21R3KmQHFJd/8HLsSjkoIyJrEb7wIWaF0DpUkUw7X+dZUwPsQSeoLFPOXz3bVsZa2LEyDD8Mn2vjIl0r13nBdi5+6yMVTfluw5wK19MxvQQS+ApenSriq8+ayVjTYz7z1+YMDlSxkS6lHjmBlxcJ2DXnnNySHUffdAUHdpWljE9hiXwDCOGNsQbw31krIkvx2/D62+H4caNO3KISDfWbYhDrQa/4N497e8zvvRiTbwz0lfGJPDGcDYMGboaS1cclbEmGjV0xVeft0LD+q5yiEhTX47fppsz1sY+5bA+tJ+M6QlYAtnUoesi7Nh5RsaacHKyx9eftcJLL9aUQ0Squ5x0E0NfD8WmzafkkCZKuBRG3JE3ZExPwRLIgTo+03A6QdvJLo8b9VYTfPxhMxkTqWbr9tMIHrJS02UgpGMHXkeZ0trO/rcmvCeQA5s3BsO2oH5W+5z8ww70HbgMCYn6KSYyj1+m70XXXkt0VQBLQ3qzAHKIJZADxZ0KYdP6ATLW1Np1cegV9Ds2/nVCDhEpIjU1HSPfWa/pyrtP8vnHLdC6ZUUZ03OwBHKoZo1SCFnQS8aaio27gt59/8DUaXvkEJFFbQtPQM8Xf8PcBfvlkKb+835TvDmikYwpG3hPIJdmzonGO+9tkLHmBg2og4//00wXM57JOG7dysCEyZH4bsoOOaS5z/7bAm+9zgLILZZAHkz6PhKfa7wr2ZNUq1oCY0b5opfGeySQMYStj8OE7yKxL/q8HNLc15+3wvDXGsqYcoAlkEcLFh3EG6PCZKwL/V6qhTFv+6Kih5McInquy0k3MeG7CPw6c58c0oWJ49vilcH1ZEw5xBKwgA1/nkCffn/IWBfKlCmKsaP8MGSQ9ktkk/X4bekRTJwciZjYZDmkCz981wHB/WrLmHKBJWAhO3adRYcuC2WsG506eGLMKF/Ur8t9VenpTp66hm+/i8DiJYfkkG78/EMnTpS0IJaABUVFX0DL9vNkrBv29gUwZpQvxrzN9VTo32bNjcaEyZE4fz5FDunGjF+64IUevNdlSSwBCzt6LAkt28/D7dt35ZBu+Pm6YczbvmjVwkMOkQlF77+A737YiVWhx+WQrsyb2R1dA71lTHnEElDAiZPX0KPPEl0tMfEkrw/zwZvDfVCmTFE5RCZwLCYZM2fvw8w50bh/X9/HgJD5vdChHZeEVgJLQCFnz97AoFdXYfde7ddUf5bSpYoguF9tDBxQB+XLceMNMzh1+hpmzI7CzDlRuHVLv2esWYo52OKnKZ3QpTPPApTAElBQUvJNvDo8FH9vOSWHdMfFuRCC+9fGwP514VHBUQ6TAVy4kIqZc6IxY/Y+XNXRej/Z9c7IJvjoAy6YaGksAYWlpqbjleGhWLchTg7pkqOjHYL71UFwv9rw8nSWw2SFrl67jZlzojBjdhQuXEiVw1alc0cv/PxDJxQrZieHKJdYAipIT7+HBn4zkGhFq30WKWL74DJR/9qoWqWEHCYrcOtWxqNv/qdOW89nzwbAs45I1auVxIyfA1G9Wkk5RLnAElDY9eu3MejVVVZxSehJ7GzzY+CAB2cGNWuUksOkQ/fvZ2LmnGjMnBOFY8eT5LAhFHcqhNnTu6BFMw85RDnEElDQmbM30H/wCkTvvyCHrE7+/DYI7lcbA/rVQf26ZeQw6cDx2GSsWRuLVWtiDPGZy465M7qhW5cqMqYcYAkoJC7+CvoOXK7bafd50bplRXQN9EaXzt5wLs7VSrV0/fptrAmLRWhYHNaui5XDpjDtp0C8+EJ1GVM2sQQUEBt3BX36/YGTp67Jocc878qn/pUqWQRdA73RNbAKmgW4y2FS0F9/n8SasFisCYvFxUtpcth0fvmxM4L61JAxZQNLwMJOnb6GXkG/I/7EVTlkaI19yj06O3B34yOmSjhy9DJCHx749x+4KIetUCYeHIIsY/rPgejdk2cEOcUSsKBLl9PQo89vOHzkshwyjUKFCqLbwzLo3NFLDlMOJV+59egb//qN8XLYiilzJrxwTg9+7nKIJWAhGRn30aVXCHbsPCOHskmZHwotVa9WEl06e8GnQTk09nGFgwOf7c6OiMhE7Nh1Fjt2ncGOXWdx48Yd+RJ6inz5bLB6aRD8/dzkED0FS8BC+g9egdC1MTKmh4oUsYVPA1c0rF8WjXzKoVmAO+ztC8iXmVL8iavYtPkUInckYsfuszh3Tr+reFqDkiUKI3TFS6ji5SKH6AlYAhYwZtxGzJgdJeM8suz1Ur2xtyuABg3KorFPOTT1d0dTf3cUKJBPvsyQ0tIysGnzSWzafArhkQmIib0iX2JQ6p3t1qxRCmEr+8LBwVYOkcASyKMp/9uJjz/fImPKofz5bR6cITwsBE9PZ5QpbYzVTY/FJOPYsSQci0nC35tPYefus/IlpIAO7TwRMr+njElgCeTB6jUxGPDyChmThRQrZgevys7w8nSGp6czvD1dHvy6sjMKFtTfWUPWwf7o8cs4HpOMY8eTDTtj93ny5bNBOddiSDyj7XIVI4Y2xFeftZIxPYYlkEvHY5PRpuN8pKSkyyFSgUcFJ3h7PSgEL09neFV2hoODHYoVs4ODgy0cHOxgZ5tf/rZcuX8/Eykp6UhJvYPU1HTcSEnHuXMpOBaThGPHk0x9sH+SVi0qYuwoX+zcfRaffKH9WfL3E9tj0IA6MqaHWAK51D5wIU/rdc7ONj8cHB6UQrFidnAo+vDXD0siayXKlJR0pKTcQUrqw3+mpCM1LR0pKem4kXIHN29miH8zPUnRorYYO8oXI99oDACIib2CRgEzxKu0sWFNfzRq6CpjAksgV5S5EUxkvTp39MK7o/1Qp3bpf+TtOi/Arj3ab6xUtUoJbN4YDHs7PpEm6e/Cqs4tXHxQNwVQwqWwjIhUVapkEUz4ug0WzunxrwIAgJ7d9bEp/LHjSRj97kYZE3gmkCMxsVfg12IW7t69L4c0MevXrjh3LgUTv4/ENSvcKYqsW59e1TF2tN8zNx9KSr4Jz+r/k7FmJk9oj8HBvD/wOJZADnR7YQm2bDstY02ULeuAo9HDATxYU2bS9zuwdMVR8Soiy6tTuzSGDmmAvkE15dATDX19DZb8cVjGmsif3wbhfw/mRkmP4eWgbPr2uwjdFAAADOxX+9Gvq1criZnTuuCn7zuibh2u9U/KqFmjFCZ90xZ/rw/OdgEAQP++tWSkmXv3MvHeh3/J2NR4JpANO3efRfvAhTLW1LH9I1CmzJMnU82Zvx9z5u83zcYipKyqVUpgcHAdvDywXq7nZ+jlBnGWTz9q/ugpJrNjCWRDm47zsWffeRlrZnBwXUye0E7G/8IyoLzw9nLB4OA6GBxcN8/rPIX8fhjD3lgjY01FbB7MfYrBEniubyZF4Otvt8tYU5FbXka1qtm/pskyoJyoVLE4Xh5YF4OD66BIEcutvdMoYKaudtpr06oi/ljcW8amwxJ4hoOHLqFp6zky1lRQnxr45cfOMs4WlgE9SwV3RwwOfnDwd3S0l8N5Nnvefowau17Gmvru23Z4eWBdGZsKS+AZXnjpd/y56aSMNRX+92DUqJ63U1iWAT2unKsDXh5UD4OD6yi+Z3RDv+mIi9fPrntOTvbYE/GKqefc5O4ujwksWHRQdwUwsH+dPBcAAAwaUAebNwTj+4nt+TSRiZUpUxTvvxuAzRsH4p2RTRQvAAC6uxl77dptfDleX5d71cYzgSe4ffsu6jWZjvPn9bW5R/Su1+BRwUnGeTZn/n7MX3gAe6P0c/OblNO2dSUEdvJCYCdvuDgrf+CXWrafh6hofZ2Frl3RF36+5WVsCiyBJ/jkiy34/sedMtbU6JFN8N8PmsnYorZuT0Do2hiEhsVydyuDqV6tJLo8PPDXqllKDqtqTVgs+g1aLmNNNfV3x+plQTI2BZaAEBd/BQ399LHyYZbSpYogetdrKFSooBxSRFpaOkIfbm6+JiwW9+7x82GNnJzsEdjJG4GdvNChbWU5rKm+A5dj7bpYGWtq2k+BePGF6jI2PJaAMPyttVi85JCMNaXleujxJ65iTVgsQtfG6GqyDz1dy+Yejy73lC5VRA7rgh6fvPP2csGu7UNkbHgsgcfsjTqP1h3my1hTAX7uCF2uj9PU8IjER2cICYna7hhF/1TFy+XRgb9eXeu42a/Hy67jv2iNYa82kLGhsQQeM/CVlVi5+riMNbU+tB8a+5STsaZu37n76FJR6JoYpGfoY1VVsylTuihaNK+ALp280bmjlxzWvbt378PHfwZOnromhzTj6uqAI1EPFmY0C5bAQ7v3nkPbTgtkrKk3hvvgi09aylhXTp2+hi3bTiNy51ns2HkGp07r5wfaiPx83eDfpDz8fN0Q4Oee67V89GLl6uMY+MpKGWvqq89aYcTQhjI2LJbAQ68MW40/lutnKebKlYpj57YhKFDAun7Id+89hx07zzwqhStXb8mXUA5Uqlgcfr7lEeDrjhbNPVCmtD6v8efFsDfXIOQ3fSw1DQDlyxXDoX3DZGxYLAEAx2KS0aTpTBlratHcnujUwVPGVmd7eAK2hSciPDIRO3ad0c2GPHpVqFAB+Pu6oWVzD7RoVgE1qmv7OKcakpJvon6T6bhx444c0oyWD2OojSUA4L0P/8S0GftkrJmXB9bFd98+f5VQa5OecQ9btyVg6/bT2Lr9NKL3X5QvMaV6dcs8Oug3C6ggh03h92VH8erw1TLWTK2apbHtr4EyNiTTl0BaWjoqV/sRt+/ck0OaqOjhhMgtL+d56V5rkJKSjsidZxAbl4zjMcmIibuCmJhkQ15Csi2YH15ezvD2coG3pws8PYvD29MF3l7Oqs3/0Ls3R63D/EUHZKyZJQt6ob3O5lcowfQl8OvMfXj3gz9lrJnfFr6Adm0qydhUkpJvIuZhKRyPSX5UEolnbsiX6k7JEoXh5eUCb09neHk6w+vhgV6J5T6M5vbtu2jaeg5i467IIU106eyN+bO6y9hwTF8CrdrPwz6drGMy5m1f/Of9pjKmh27fvvvwjCEZsbFXcDw2GRcupCI1LR1paRlIS0tHaloGbt3KkL9VITZ48YXqaOrv9uDA7+WC4k6WX4LZTLaFJ6BLzxAZa+bg3mFwK19MxoZi/GsOz7Av+rxuCqBFMw8WwHPY2xdAndqlUad2aTn0D/fvZyItLR0zZkfh0y+3ymEAmQBsgMxMwMZGDj7wrLFHMlG6dBH07/v/+z1T3jT1d8enHzXHx59vkUOa+H3pEYwe2UTGhmJdzx9a2IpV+pgY5uRkn63tIil78uWzgYOD3TO2BH14cH/WQf5ZY4/ZtPmUjCiPRr7RGL26V5OxJpau0M9j40oxdQmsXhMjI038MKk9KnrwmrGlbd1+WkYWd+jwJZw/nypjyqMfJ3dA1SrZ30JVKYePXMb+A8Z+is20JbBn33ldTFd//90AdA2sImPKoz37ziMlJV3GiojYeUZGlEeFCxfE1B86IV++7J2RKSlsfZyMDMW0JfDnXydkpLrePavjvXf8ZEwWsGv3WRkpRs33MpP6dcvg5x87yVh16zfGy8hQzFsCGm8d6dPAFb/8L3cbxtPz7X3q/QDL27OXS2wr5cUXauCD9wJkrKqo/RcMfcnPlCVw7dpt7Nmn3Q+uq6sDpv8ciPz5tT/VNaroA+o99RV94ALu3zfvY9ZKe3e0Hwb213YJh20RCTIyDFOWwE4NT98LFMiHWb904eQhBd24cQfxJ67KWDH37mXi0OFLMiYLmjKpPTq0024trR0Gvu9jyhJQ81KBNHdGNzRpbM4NrdVy5FiSjBSnxXuazZzpXTXbW+PpjxtbP1OWwIGD2jzy9cuPna1y8w9rExObLCPFafGeZmNvXwDzZnVH9Wol5ZDiDhy8aNgVcE1ZAlp8a5s8oR2C+tSQMSkgNk79A7Je1rsxutKlimDhnB6oXKm4HFKcUf+OTVcC6Rn3VN8fd9I37TA4uK6MSSFazP/Q4j3NqqKHE0Lm90KliuoWwekEY/4dm64E1H7Ua8qk9hgyiAWgptMJ6pY8YNwDhF55eTrj90UvoIqXixxSzIWLaTIyBNOVwLVrt2WkmOk/B2r+aJsZndFgyemUlHRcvWa8fRD0rHKl4li2pDfq1y0jhxShp53PLMl0JXAnXfnNY4oVs8Mfi3ujd8/qcogUdvNmBq6qWPSPU/ssk4By5Yph1dIgtGlVUQ5ZHG8MG0RBhTdur1a1BNaueEmVDyX928VL2p2ya/neZla0qC3+WNwbAxRe0rtQIWOuvK/sEVGHnJ0LychiunT2xobQfqhZw/ibg+vV5aSbMlLNpcssAS39OLkDPvpAuT05SpUqIiNDMF0JVHB3hJ1tfhnn2bgx/pg/qzscHOzkEKnoyhXtrstr+d70wDsjfbFobk+ULFFYDuWZt6d6N6HVZLoSAGDRGbvubo74beELGDfWXw6RBq5quEm9mg8d0NN16uCJLRsHooMFN4kvWaIwatU05hm+KUuga6C3jHJlYP86iNwy2PQbw+vJ9RTtnuC4fl2796Z/cnV1QMiCXhj/RWuLLNTYUyc7nSnBlCUwZFC9PO3kVb1aSYTM74kpk9qjSBFbOUwaStGwBFLS1NnEhrJv2KsNsDv8FfTsVlUO5chrQ+rLyDBMWQIA8M2XbWT0XCVcCuPLT1siYvNgTVc0pKe7efOujFRz82aGjEgHKlUsjlm/dsXvi16Av5+bHH6urz9vpckyFWoxbQm0a1MJC2Z3h0s2nhby9nLGV5+1wpH9w/H6MB85TDpy65Z2JXCLJaBrbVtXwprlL+H3RS+gS+fsXRL+cFxTDH+toYwNxZgPvmZTYCdvNPWvgGkz9yJsXRyOHk/C7dt34ehohypeLmjSuDzatamEAD93+VtJp+7c0e5ArMZERMq7tq0roW3rSrh4KQ0b/zyBiJ2JOHYsGZeTbiJfPsCtfDH4+7qhd68a8Kxs3DOALDYAMjMzuStSlvv3M3WxuTXlzhujwrBg0UEZq8LPtzzWrugrYyJdM+3loKdhAVg3Laf239furYlyjSVAhpI/v3YfaX6BIGuk3U8MkQKUXhvqWbR8b6Lc4qeWDMVWgSVBssvOTrv3JsotlgAZir29dg+82dsXlBGR7rEEyFAKF9buQKzlexPlFkuADMWhqHbLeBQtwhIg68MSIEMpVky7pby1fG+i3GIJkKE4OdrLSDVavjdRbrEEyFCciz9/LSilZGcdKiK9YQmQobiU0O5A7KLAblZESmMJkKGULlVURqopXdKYe9CSsbEEyFCKO9mjUCFt5gqULesgIyLdYwmQ4biVd5SR4goWzIcypXkmQNaHJUCG4+6mfglo8Z5ElsASIMPxqKD+ATkve1YTaYklQIbjWdlZRorT4j2JLIElQIbj5an+AVmL9ySyBJYAGU61KiVkpDgt3pPIElgCZDiurg4opfIz+zVrlJIRkVVgCZAh1aldWkaK8fJ05uJxZLVYAmRIDeqVlZFi1HwvIktjCZAhNWyg3oHZp6GrjIisBkuADMm3cXkZKUbN9yKyNJYAGVKRIrbwbaL8wdnV1QHVq5WUMZHVYAmQYbVs7iEji1PjPYiUxBIgw2rTqqKMLK5NS+Xfg0hJLAEyrPp1y6JSxeIytqiO7T1lRGRVWAJkaF06e8vIYnp0qwp7e232LiCyFJYAGVqPrlVlZDFK/ruJ1MISIEOrW6c0fBpY/jn+UiWLoGugcmcZRGphCZDh9XuplozybEC/2jIiskosATK84H61UcKlsIzzJJglQAbBEiDDy5fPBsNeayDjXBvYvw4quKu/exmREmwAZGZmZsqcyFBu376LmvV/QVLyTTmUY7vDX+EmMmQYPBMgU7C3L4D3xvjJOMdGvtGIBUCGwjMBMpVuLyzBlm2nZZwtnpWdEbllMAoWzC+HiKwWzwTIVL75sjXs7XJ3EP/2qzYsADIclgCZStUqJTDtp0AZP9f4L1ujVQsPGRNZPZYAmU63LlXw8w+dZPxUn37UHMNesdzTRUR6wnsCZFrbwhPw3od/4cjRy3IIAFC2bFF89Wkr9OjG5SHIuFgCZHpzF+zH8pXHsDfqAm7fzkCDemXRpXMVvDqkHmx5D4AMjiVARGRivCdARGRiLAEiIhNjCRARmRhLgIjIxFgCREQm9n+l/I+Kh/cMlgAAAABJRU5ErkJggg==;" parent="1" vertex="1">
          <mxGeometry x="540.92" y="290" width="38.15" height="44" as="geometry" />
        </mxCell>
        <mxCell id="Wp2VC6QCwjRFlCdOOu6L-10" value="nginx-gateway-fabric" style="shape=image;verticalLabelPosition=bottom;labelBackgroundColor=default;verticalAlign=top;aspect=fixed;imageAspect=0;image=data:image/png,iVBORw0KGgoAAAANSUhEUgAAAYEAAAG8CAYAAAA4vRlXAAAACXBIWXMAAA7EAAAOxAGVKw4bAAAADXRFWHRsb2dpY2FsWAA0MC44D3aRQAAAAA10RVh0bG9naWNhbFkANDAuOMQqQuUAAAAPdEVYdHNjcmVlbgBIRE1JLUEtMFgKrxMAACAASURBVHhe7d13QJVl/wbwCwfgQBCcKIgKuLeoDPdW3GnkQM3K0TBNy+rtbZelZtabZe6NlRvFUeYC3OBWhgPcggtwgMrvD8WffXMwzjPO81yff/K97mPnNQ/PdZ5x37cNgMzMzEwQmVVmJhC6NgZR+y8gI+MeatUsjY7tKsPBwU6+lMhwCsiAyEx++GkXpvxvF5Kv3PxHXrBgPrw5ohH++0Gzf+RERmMDngmQCV2/fgevjliNDX+ekEP/UK9OGfw6NRBens5yiMgQWAJkOikpd9Dzxd+xe+85OfREbuWLYdmSPiwCMqR8MiAyuldHrMl2AQBA4pkbeGX4aqRn3JNDRFaPJUCmMn5iONZtiJPxc+0/cBFj3tsoYyKrx8tBZBpR0RfQsv08GefIgtndEdjJW8ZEVotnAmQa4yeGyyjHvvxmu4yIrBpLgExh/cZ4rN8YL+McO3osCTNmR8mYyGqxBMgUfv51j4xybeq03TIislosATK8HTvPYPPW0zLOtRMnr+G3pUdkTGSVWAJkePMXH5RRns1feEBGRFaJJUCGlpJyByG/HZJxnm0LT8DhI5dkTGR1WAJkaMtWHsO9e8o8Ar1s5XEZEVkdlgAZ2srVyh2olfx3E6mFJUCGlZR8E5s2n5KxxcTFX8HeqPMyJrIqLAEyrI3PWSHUEtR4DyIlsQTIsJQ8C8iyafNJGRFZFZYAGdbW7ZabG/A0u/acw9Vrt2VMZDVYAmRIh49cxsVLaTJWRERkooyIrAZLgAxpx64zMlLMzt1nZURkNVgCZEh7oy7ISDF79vEJIbJeLAEypKho9Q7Mar4XkaWxBMhwbt++i6PHkmSsmFu37uJYTLKMiawCS4AM54iKBZDlyJHLMiKyCiwBMpzjx9UvgZhYngmQdWIJkOHExV+VkeJi467IiMgqsATIcE6cUr8EtHhPIktgCZDhnD59XUaK0+I9iSyBJUCGk3hG/QPylau3kJqaLmMi3WMJkKHcSb+Hy0k3ZayKs+dTZESkeywBMpSLF1NlpBot35sot1gCZChanQUAwOWkWzIi0j2WABlKkoYlkJSkzqqlRJbEEiBD0XJtfy3fmyi3WAJkKDdu3JGRaq5f1+69iXKLJUCGkpKq3YGYj4iSNWIJkKHcvHlXRqpJS2MJkPVhCZCh3LyZISPV3LqtXQER5RZLgAzlzh3tDsRavjdRbrEEyFAy7t6XkWrupN+TEZHusQTIUO5qWAL37mXKiEj3WAJkKDY2NjJSjYZvTZRrBWRgRhcvpeHPv07geGwybt3KgJOjPby8XNCooSs8KjjJl5OOFSyg3fcaLd+bcm9f9HnExFzB5aQ05M+fD+VcHdDYpxzKlCkqX2pIpi+BD/77N6ZO2y3jR+rVKYPevaqjX1BNODray2HSGVtb7Q7Ednam/3GyGhv/OoGly49i7fq4p04w7NalCsaN8Ue1qiXkkKGY9lObkXEfPV/8DdvCE+TQP0Ttv4Co/Rfw6RdbMHxoQ7z1eiM4Fy8kX0Y6YW9fUEaqsbPLLyPSmcVLDuHn6Xtx4OBFOfQvK1cfx5+bTmDJ/F4I8HeXw4ah3dcmjb05Ouy5BfC4O+n38P2PO1GrwTT8OHWXHCadKFxIu+81RQrbyoh0Yv3GeLRqPw/D31qbrQLIkpaWgWFvrkVamnbzT5RmyhKIiDyDkN8Oyzhb0tLS8dGnm9Gq/Txsj8h+iZA6iha1k5FqihTR7iyEniwp+RZGjFyLF/svxb7oC3I4W86cvYHvpuyQsWGYsgRCfj8koxzbF30BgT1C8MXX2+QQacjBQbtv48WKaVdA9G9LVxyFX/NZWBSS95/3hSEHZGQYpiyBTZtPySjXJn4fiU7dF+N4bLIcIg04aXjzXsv3pn9678M/MWToaly6bJk9Hi5cTENULs8k9M50JZB85RbOnL0h4zyJiExEi7ZzsXTFUTlEKnN21u6mvZbvTQ/En7iKDl0XYdqMfXIoz44eS5KRIZiuBC5cUGYz8Fu37mLI0NUYPzFcDpGKSrhodyDW8r3pwWOfbTstwI6dZ+SQRZxT6NihNdOVwM1byi7yNX5COF5/O0zGpJJSpbSb4KPle5vd3AX70bvvH7hyVbl9nrVcoVZJpiuBfPmUn9u/cPFB9On3B24pXDj0byVcCsG2oDbP65c1yQxTvZk0JRIj31kvY4vLZ9B1QUxXAkWLqvP0yIY/T6B77yUWuzFF2VeunIOMFGdjA7iWVf99ze7TL7fi86/UeULPwcGYT3+ZrgRKligsI8Xs3H0WvYJ+x7lzxryWqFfubo4yUpy7myMXkFPZB//dhMk/qPf8fqmS6h071GS6EnAuXkjVNYAOHrqE3v3+wPnzqXKIFKLFon9avKeZffDfTZg6bY+MFaXFlws1mK4EAKCKl4uMFHX4yGUEBS9F8hXlblrR/6tcqbiMFKfFe5rVp19uVb0AAKByZWP+HZuyBGrWKCkjxe0/cBH9By/n7lMq8PZylpHivFX+YmFWEyZHqHoJKEuZMkVRprQxb/ybsgTq1S0jI1VE7jiDgUNWypgsrGoV9Uu+ahVjLzesBzNmR+HL8dtlrIoG9crKyDBMWQI+DcvJSDXrNsThzVHrZEwW5FHBEY6O6j7JUaO6+sVjJqtCYzBm3EYZq6axj3bHDKWZsgSqervA1VW7x/nmLzqAr7/V5huNWdSppd7Znrubo6pPnZnN7r3nMGTYKhmrys+3vIwMw5QlAAAtm3vISFXfTIqwyOqG9GT166lXAmq+l9lcupyGoa+vQUbGfTmkmmLF7NCwvquMDcO0JdCmZUUZqW7EyLXYseusjMkCfBqo90PbSMPLi0Y3/M21OHHyqoxV1am9p4wMxbQl0KFdZeTPr/3snjfeDsP160/e45Ryr0lj9U7fGzdiCShh3H824a+/T8pYde3bVpaRoZi2BAoVKojATt4yVl1c/BW8OZoLzlmai3MhVZ4CK+5kb+gnR7Qyd8F+/DJd/bkAkp1tfnTu5CVjQzFtCQBAj65VZaSJVaExmPh9pIwpj1o085CRxbVs4SEjyqN90edVWRAuO7p3rarZgoRq0W5Xbh3o3rUKXN4rpIuZvF98vQ0N6pXV/Ia1tbh3LxOxcck4dz4FaWkZSEtLR+rDf968eRepaemIj7/y2O+wAZD52P8WbGyAzEw8eI28TJj1e/895lbOEadOX+OyERaSmQm8PWaDjDXTs7s+vigqyQZAZmbmM344DE6LNUiexqOCEyI2D0bhwtywPMuNG3dwPDYZsbFXcDw2CTGxVxATm4z4E9reLJRsC+aHl5czvL1c4O3pAk/P4vD2dIG3lzMKFeLfZ3aNGrses+ftl7EmPCo4IXrXazI2HNOXwJGjl+HXYraMNdPvpVr46fuOMja88+dT/3GQf/DPJFy4aP1LcZcvVwzeDwvCs7Lzg197uqAM9x/4h5DfDmHYm2tlrJkP3gvAu6P9ZGw4pi8BAHix/1Ks3xgvY838OjUQfXpVl7Fh3L59F9sjErF56ylE7jiD47HJSE1Nly8zPAcHW3h7usDfzw2tW1ZEU393VTY90qOz51Lg23wWbtzQz5NyR6OHo6wJ9ohgCQBYtzEeQf2XylgzzsULYXfEK3AxyMbl9+9nYtfus9gemYjNW05je0SCfAkBKFAgH1q3rIhWLTzQ1N8d1auZZymK4CErsSr0uIw1Y6YzcpbAQ607zMfeqPMy1kzfoFqYOsV6P4T7os9j1+5zj77xm/Gbfl5VcHdEm1aV4O/nBt9G5Qz7rXTugv26eRooy9/rg1V5xFgPWAIP/bb0CF4bESpjTc2f1R1dOms/lyE7Dh+5hJ27zz34xh+RiDNnb8iXUB75+7nBv4kbmjQuB78mbrC3t/6H+y5cSIVPwAykpOjnS0KXzt6YP6u7jA2LJfCYZm3m4sDBizLWTOVKxbE7/BXdXieO3HEGoWGx+GvTCRyLSZbDpKASLoXh26Q8mgW4o1uXKihVsoh8iVUY9sYahPx+WMaaClvZF75N1JtxrjWWwGN+X3YUrw5fLWNNjXqrMT7+sLmMNXPi5FWsCYvFmrBYrnukE87FC6Fblyro1qUKWjSrIId1a01YLPoNWi5jTZntLABgCfxLu84LsGvPORlravumQahZo5SMVXPrVgZCHx7414TFarqiIz1bY59y6NalCroGeqN8uWJyWFeaNJuFY8eTZKypP8MGoGF9cy0DwhIQ9PakEAB06uCFRXN7yFhx28ITsGZtLELDYnmN38oUKVLwwdlBYBVdLoA2acoOfP7VVhlrqm9QTUyd0knGhscSeIJ+g5ZjTVisjDW1YHYPBKqwkFVs3JVH3/h379XXGRHlTt06ZdAt8MHZQeVK2m+Wfv58Kuo0moZ0ne23HbXzNVT0MN/yHyyBJzhw8CKatZkrY03VrlUaW/8cKGOLCfnt0KNLPvw4GFPBgvnQLfDBvQMtnzob/e4GzJobLWNNvTvaDx+8FyBjU2AJPMWHH/+Nn37ZLWNNTZ7QHoOD68g4T+bM34858/cjev8FOUQGVq1qCXQN9MbLA+uhdCn1niw6eOgSmraeI2NNeVRwwr4dr+r2KTylsQSe4tatu6jvOx3nz6fIIc24uzniwJ6hMs4VHvwJAFxdHTA4uC4GB9dBCRfl90keMnQ1lq44KmNNzfilC17oUU3GpsESeIbFSw5h+Fv6WdAKAL7+vBWGv9ZQxtnGgz89iVv5YhgcXBcvD6wLJyd7OWwRe/adR5uO82Wsqa6B3pg301yPhEosgefoO3AZ1q6Lk7Fmyrk64HDUcBk/Fw/+lB0eFRzx8sB6GBxcBw4OdnI4T15+bRWWrTwmY80UKJAPu7YPQaWK2t8s1xJL4Dni4q+iod90GWtq4vi2eGVwPRk/EQ/+lBuelZ0xOLgOXh5YD4UK5X15ikOHLyGg1RwZayqvZ9VGwRLIhqnT9uCD/26SsWaqeLlg5/YhMv4HHvzJEqp4uWDwoLoYHFwXdra532bx7THrMWe+PjaLAYA2rSrij8W9ZWxKLIFs6vnib9i0+ZSMNTNnejd071pFxjz4kyKqVyv56Mwgf/6cPUVz6XIavGv+JGPN5M9vg8gtQ+Dt5SyHTMnUG83nxNdftEbBgvr5zzV3wT+/Vf3190l06r4Yb49ZzwIgizty9DLGvv8nWrSbm+PtH+cvOiAjTX37VVsWwGN4JpAD8xYewFuj18lYM9s3DYKrqwMmfb9Dd3MayNj8/dwwdpQvWjTzkEP/0sB3um72hO7Tqzp+nRooY1NjCeTQW6PXYd5CfXyzade2MhISrutuES4yj1FvNcHYUb4oXLigHAIAbPzrBHr3/UPGmqhcqTi2bByIokVt5ZCpsQRy6N69TLRoNxcHD12SQ0SmVK9uGbw72g8d23vKIQx/cy0W/3ZIxppYvSwITf3dZWx6+rnIbSXy57fBD5M6wCZn98aIDCsq+gJeCl6G9z78C0nJNx/l6en3sHylPmYHf/lpSxbAU/BMIJcWLj6I198OkzFpoEzpovCs7AwHB1sUc7CFg4MdihWzg0NROzg42D7M7eBQ9LGxh68DgNTUdKSk3EFKSjpSU9NxI+UOUlIf/DorT0lNR0rq/7/m/IVUxMdfwR2drYSptSpeLhj7jh9e6FENy1cew+DXVsmXqM5Mm8bnBksgDz7+fAum/G+njJVhA8DEf00FC+aDZ2VneHk6w9vTBZ6eD37tVdkZxYpZdmZrTiSeuY74E9cQF38FcfFXEH/iKuLir+DkqWvypabSv28tXL9+G6vXaLske6OGrtiwpr+M6TEsgTwa8PIKrF4TI2PKJRsbwN/X/cEB3tMZnpWd4e3lDI8K1rXO+/37mYiLv4r4E4+Xw1Vsj0iQLzUsGxsbaHlsKeFSGOtD++liDwU9Ywnk0c2bGejYbRH2H9DPBvXWxLZgfvj7ucHP1w0Bvm5o0ri8oe+3ZGTcx9btp7Fl22ls3noaBw7yc6OUZUv6oFULDxmTwBKwgNi4K+jcfTEuXU6TQyQULlwQ/r5u8G1cHo19ysGnoSts87AcgbU7fz4V4TsSsT08AVu2nTb4ZaRMPDjkKO9/kzuif99aMqYnYAlYSHhEIgJ7Lgb/U/6Tg4MtGvuUQyOfcmjU0BWNfcqhUKEnP1NOwIGDlxCxIxERO84gIjLxH0/bUPZ89H5TvPO2r4zpKVgCFrR6TQwGvLxCxqbUsrkHugZWQZfOXqpsVmJEt25lYFt4IlaGHseq0BikpNyRL7FSyp0RvDHcB1980lLG9AwsAQtbFHIQI0aa89FRjwpO6BrojS6dveHTwFUOUx6cO5eClaHHsTI0Bjt2npHDVijrmGO5MhgcXBeTJ7STMT0HS0ABs+dFY9TYDTJ+MuW+FKmmS2fvR9/67e3yvvY8PdvW7aexKjQGK1cfx+Uka79cZJkfgL5BNTF1SicZUzawBBQyc04U3nlvo4wNo2aNUuga+ODgX9XbRQ6TCpKv3HpYBseweetpOWwafYNqYeoUTgbLLZaAgvS26mhe2dgAQX1qoltgFXRoV1kOk4Z27TmHlauPY+Xq4zhz9oYcNqyB/etgyqT2MqYcYAkobOmKoxgydLWMrUrBgvkwsH8dBPerjdq1Ssth0pGbNzOw5I/DmDknGocOW9sihzm7NPT6MB98+SlvAucVS0AFmzafRN+By3H79l05pGv29gUwaMCDg3/1aiXlMOlYesY9zJoTjRmz9yEuXh9r+Wff88vgvx80w+iRTWRMucASUMH7H23Cz7/ukbFuOTjYIbhfbQT3r40qXrzeb81SUtIxc04UZsyOsrLLRE9/euiXHzshqE9NGVMusQQUNmLkWiwK0cd66s9T3MkewQ8v+3C9FWO5nHQTM+dEYebsKKt9osizsjP+930HNGlUXg5RHrAEFNR/8AqErtX/4nIlSxRGcL/aGDigDtzdHOUwGciZszcwY3YUZs6JQkpKuhzWrZ7dq+H7Ce00XTHWqFgCCunSMwTbwvW9YmRxp0IY+kp9BPerDVdXBzlMBhYXfxUzZu/DrDnRSM/Q954ITo72CJnfE00a8wxACSwBC8vMBFq0m6v7VUV7da+GMaN8Ua1qCTlEJnLo8CXMnBOF2fP2yyFdKVmiMGb/2hUB3B3M4lgCFpSamo6AVnNw6rR+V4Ks6OGEMW/7ot9LXGGR/t+6jfGY+F0k9uw7J4d0w8HBFovn9mQRWBhLwEIuXEyFX/PZuHL1lhzSjVcG18OYt31RpkxROUSEO+n3MGFSBCZ+HymHdMPONj+WhvRmEVgQS8ACTpy8Ch//Gbh3T5//HevXLYsxo5qgUwcvOUT0L+ERiZgwORKbt56SQ7oRuiyIRWAhLIE8OnjoEpq2niNj3Rjzti/GjPKFvT0XdqOc+f7HnZgwORJpafp8iohFYBksgTzYsessOnRZKGNdaNXCA2Pe9oWfr5scIsq2/Qcu4tvvIrAmTNsN45+GRZB3LIFcOnX6Guo2+lXGmitcuCA+fC8Arw/zkUNEuTZjdhQmTo7EhYupckhzLIK8YQnkQkbGfZQsP1HGmmvUsBw++7gFmjQqJ4eI8iz+xFVM+C4CIb8flkOaYxHkHksgFxr4Tkf8CX0tyjVoQB18/nELODhwRiUp65cZezHuw79krLmNa/tzR7tcYAnk0KBXV2HFqmMy1oydbX58/klLvDakvhwiUsy6jfF49/0/kZB4XQ5p6kLCaO5ul0P5ZEBPN/H7SF0VQL26ZbBsSR8WAKmuQ9vKWLeqL5o3rSCHNOXjN1NG9BwsgWxa8sdhfPH1Nhlrpt9LtbBsSR/4+/HpH9KGq6sDVv7xIgYNqCOHNJN45jqGDF0lY3oGXg7Khr+3nEKPPr/JWBP58tngi09aYsTQhnKISDN6u0/wzZetMfSVBjKmJ2AJPMfhI5fh33K2jDVRs0YpfPFJC7Ro5iGHiDR3PDYZXXuG4OKlNDmkiaUhvdG6ZUUZk8ASeIaLl9LQ7YUlOHY8SQ6prnvXKvj2qzYoVbKIHCLSlU7dFyMiMlHGmti5fQh3x3sO3hN4isxMYOQ763VTAHOmd2MBkFVYu+IlfDiuqYw18dKAZbpd9kIvWAJP8dbodVi3IU7GqssqACJrMnaUL0KXBclYdSdOXsU7722UMT2GJfAEn3+1DfMXHZCx6lgAZM0C/N11UQQhvx/G519tlTE9xBIQlq08hklTtF9PnQVARqCXIpg0ZQdmzY2WMYE3hv8hIfE6uvZaovnOYCwAMprt4QkI7BkiY9X9tvAFtGtTScamxjOBx3zy+RYWAJEC9HJGMPrdDThy9LKMTY0l8NBPv+zGspXaLgkxoG9tFgAZlh6K4MzZG/hi/HYZmxpLAMC+6Av47EttbxyNGNoQP07uIGMiQ9FDEaxdF4ufftktY9NiCQD48OO/cSf9noxV894YP3z1WSsZExmSHorg6wnhiN5/QcamZPoS+PDjvxG5Q7vZjcH9auP9sQEyJjI0rYsgNTUdX08Il7EpmboENvx5QtPTwjatKuKH73gJiMxJ6yJYvzEeP/y0S8amY9pHRO+k30PjgJmaPQ1UvVpJRGweLGMi05m/6ADeHLVOxqqwty+AP9f2R80apeSQaZi2BC5eTMP1G7dlrIr8+fOhoocT8uWzkUNEpnQ56SauXr0lY1UUKWKLcq4OMjYN05YAERGZ/J4AEZHZsQSIiEyMJUBEZGIsASIiE2MJEBGZGEuAiMjEWAJERCbGEiAiMjGWABGRibEEiIhMjCVARGRiLAEiIhNjCRARmRhLgIjIxFgCREQmxhIgIjIxlgARkYmxBIiITIwlQERkYiwBIiITYwkQEZkYS4CIyMRYAkREJsYSICIyMZYAEZGJsQSIiEyMJUBEZGIsASIiE2MJEBGZGEuAiMjEWAJERCbGEiAiMjGWABGRibEEiIhMrAAALAo5JHOLcncvhgA/dxkrLiHxOraHJ8rYogL83eDu5ihjxajxZ9KLvkE1ZaQYpX8GAHX/PHqRk/+uav8sWbucHgue9vkrAAAjRq6VuUX1DaqlSQksCjmE8RPDZWxRocuDVP3gbg9PVPzvSy/UPCiMnxiOhMTrMrYYdzfHp/4QGlVC4vUcfVbd3RxV/3myVtsjEhDYI0TGz/S0zx8vBxGRLiQkXkdgjxBsj0iQQ/SY3BTAs7AEiEg3EhKvY8RbYRg/QdkzeGu1KOSQRQsAYAkQkc4kJF7HoiWHWATCopBDObq8ll0FZEBEpLWExOuP7ueNG+svRs1nxMgwLAo5KGOLYAkQkW6xCIDAniHYHq7cfRJeDiIiXRs/MRwjRobJ2BSULgCAJUBEVmBRyEHUbjhNxoaVkHhdlQIAWAJEZCUSEq+jdsNpis7n0IMH8yvCVCkAgCVARFYkay6BUYsgq+jUKgCAJUBEVsaoRbA9IkGTS14sASKyOllFkJO1ifTM0rOAc4IlQERWKWsugbVPKtOyAACWABFZMWufXazEMhA5xRIgIqtmrWcE4yeEK7IMRE5xxjARGYI1zS5WchmInGIJEJFhjJ8YjoQzNzB1Skc5pBtqTQLLLl4OIiJD0evsYjVnAecES4CIDEdvs4vVngWcEywBIjIkvUwqy/r/occCAHhPgJ4gdHmQJntCE1la1gFYq72LtZ4DkB08EyAiQ9NqdrE1FADAEiAiE1B7LoG1FADAEiAik1CrCPQwCzgnWAJEZCpKFoFeZgHnBG8ME5HpKDG7WE+zgHOCJUBEpmTJ2cV6nASWXbwcRESmZYnZxdZcAABLgIhMLrezi/W6DEROsQSIyPRyOrtYz8tA5BRLgIgIjy3vEPHsA3vWmYMRCgBgCRARPZKQeB0j3gp76iOkWm0GrySWABHRYxISn7xlpTXNAs4JVR4R3R6uTXtm9/oeEdHjsmYXAw/mEiwKOWR1k8CyS5US4MGYiKxR1lwCa5wEll2qlABZl0VLDmPRksMyVty4MX6aLPdL9CxGLgCAJUBPoNWHftwYPxkRkcJ4Y5iIyMRYAkREJsYSICIyMZYAEZGJsQSIiEyMJUBEZGIsASIiE2MJEBGZGEuAiKyWEWaYa/1nYAkQkdVyd3fEgT1DNT+Q5pa7m/b//1kCRGTV3N0cEbo8SNMDaW4E+LvjwJ6hMlYdS4CIrJ61FUGAvztClwXJWBMsASIyhKwiCPB3l0O60jeolm4KAGAJEJGBuLs5YuqUjhg3xl8O6ULfoFqYOqWjjDXFpaSJyFDc3RzRN6gmgAebwujF1CmdHv3/0hOWABEZjrubI8aNfXA2oIciCF0ehAA/fV6m4uUgIjKscWP9Nb80pOcCAFgCRGRw48b6Y+qUTjJW3KMb1TouAIAlQEQm0DeopqrP5Lu7OWLqDx11XwAA7wnQE4wb448AfzcZK85anvEm65Q1OzewRwgSEq/LYYuxtjkLqpSAVv8xlPyLNrIAfzer+AZDlFNZB2ilikBPk8CyS5USCPB31+TZ2PETwnXxZAAR6UdWEYwYGYbt4QlyONessQAA3hMgIhOy9KQyay0AgCVARCaVNaksr0Wgt2UgcoolQESmlTWpLLdFMG6MvyaXui1JlXsCRER6lpvZxXpdBiKneCZARIScTSoLXR5kiAIAWAJERI9kZ1KZNcwCzgmWABHRY7Imlcn5TdayDEROsQSIiAQ569ealoHIKZYAEdETPPrm/3AvYCMWAMCng4hUo8QyBbkhL3PQ07m7OVr1HIDsYAkQqSAh8TpqN5wmY9VlXe8mysLLQUREJsYSICIyMZYAEZGJ8Z4A/cuiJYexPTxRxqrLmspPRMphCdC/LAo5KCNN9A2qySdZiBTGy0FERCbGEiAiMjGWABGRibEEiIhMjCVARGRiLAEiIhNjCRARmRhLgIjIxFgCREQmxhIgIjIxlgARkYmxBIiITIwlQERkYiwBIiITYwkQEZkYS4CIyMRYAkREJsYSICIysQIAEODvLnOL8b/n4wAAGh9JREFUci9fTEaqcHdzVP7PpvL2h+7uxRT/M5lRgL87EhKvy9hw1P68Kv1ZDfB1k5FV0vLzZwMgMzMzU+ZERGQCvBxERGRiLAEiIhNjCRARmRhLgIjIxFgCREQmxhIgIjIxlgARkYmxBIiITIwlQERkYiwBIiITYwkQEZkYS4CIyMRYAkREJsYSICIyMZYAEZGJsQSIiEyMJUBEZGIsASIiE2MJEBGZGEuAiMjEWAJERCbGEiAiMjGWABGRibEEiIhMjCVARGRiLAEiIhNjCRARmRhLgIjIxFgCREQmxhIgIjIxlgARkYmxBIiITIwlQERkYiwBIiITYwkQEZkYS4CIyMRYAkREJlZABmZz8tQ1fPH1Nhmr6ucfO8HWNr+MiQxt+FtrkX7nnoxVM2JYQzSoV1bGpmP6Eqjo4QSfhq4Y95+/5JBqlq44inMnR6Fw4YJyiMiQPKr8gGvXbstYNUNfqc8CeIiXgwAMe7UBenavJmNVuVacjAsXU2VMZDhVav2kaQHUrFEK748NkLFpsQQe+vC9AJQuVUTGqqpaeypi467ImMgwajWYhouX0mSsqvfH+sPJyV7GpsUSeKhypeL49KPmMladj/8M7Iu+IGMiq9fAdzoSz1yXsao++U9zdO7oJWNTYwk8JqhPTbw8sK6MVdeq/Txs2XZaxkRWy7f5LMSfuCpjVQ3oWxtvv9lYxqZnAyAzMzNT5qZ15eotdO21BIcOX5JDqlswuwcCO/FbC1m3Fu3mIXq/tme3fr5uWLviJRkTeCbwL87FC2HSN21R3KmQHFJd/8HLsSjkoIyJrEb7wIWaF0DpUkUw7X+dZUwPsQSeoLFPOXz3bVsZa2LEyDD8Mn2vjIl0r13nBdi5+6yMVTfluw5wK19MxvQQS+ApenSriq8+ayVjTYz7z1+YMDlSxkS6lHjmBlxcJ2DXnnNySHUffdAUHdpWljE9hiXwDCOGNsQbw31krIkvx2/D62+H4caNO3KISDfWbYhDrQa/4N497e8zvvRiTbwz0lfGJPDGcDYMGboaS1cclbEmGjV0xVeft0LD+q5yiEhTX47fppsz1sY+5bA+tJ+M6QlYAtnUoesi7Nh5RsaacHKyx9eftcJLL9aUQ0Squ5x0E0NfD8WmzafkkCZKuBRG3JE3ZExPwRLIgTo+03A6QdvJLo8b9VYTfPxhMxkTqWbr9tMIHrJS02UgpGMHXkeZ0trO/rcmvCeQA5s3BsO2oH5W+5z8ww70HbgMCYn6KSYyj1+m70XXXkt0VQBLQ3qzAHKIJZADxZ0KYdP6ATLW1Np1cegV9Ds2/nVCDhEpIjU1HSPfWa/pyrtP8vnHLdC6ZUUZ03OwBHKoZo1SCFnQS8aaio27gt59/8DUaXvkEJFFbQtPQM8Xf8PcBfvlkKb+835TvDmikYwpG3hPIJdmzonGO+9tkLHmBg2og4//00wXM57JOG7dysCEyZH4bsoOOaS5z/7bAm+9zgLILZZAHkz6PhKfa7wr2ZNUq1oCY0b5opfGeySQMYStj8OE7yKxL/q8HNLc15+3wvDXGsqYcoAlkEcLFh3EG6PCZKwL/V6qhTFv+6Kih5McInquy0k3MeG7CPw6c58c0oWJ49vilcH1ZEw5xBKwgA1/nkCffn/IWBfKlCmKsaP8MGSQ9ktkk/X4bekRTJwciZjYZDmkCz981wHB/WrLmHKBJWAhO3adRYcuC2WsG506eGLMKF/Ur8t9VenpTp66hm+/i8DiJYfkkG78/EMnTpS0IJaABUVFX0DL9vNkrBv29gUwZpQvxrzN9VTo32bNjcaEyZE4fz5FDunGjF+64IUevNdlSSwBCzt6LAkt28/D7dt35ZBu+Pm6YczbvmjVwkMOkQlF77+A737YiVWhx+WQrsyb2R1dA71lTHnEElDAiZPX0KPPEl0tMfEkrw/zwZvDfVCmTFE5RCZwLCYZM2fvw8w50bh/X9/HgJD5vdChHZeEVgJLQCFnz97AoFdXYfde7ddUf5bSpYoguF9tDBxQB+XLceMNMzh1+hpmzI7CzDlRuHVLv2esWYo52OKnKZ3QpTPPApTAElBQUvJNvDo8FH9vOSWHdMfFuRCC+9fGwP514VHBUQ6TAVy4kIqZc6IxY/Y+XNXRej/Z9c7IJvjoAy6YaGksAYWlpqbjleGhWLchTg7pkqOjHYL71UFwv9rw8nSWw2SFrl67jZlzojBjdhQuXEiVw1alc0cv/PxDJxQrZieHKJdYAipIT7+HBn4zkGhFq30WKWL74DJR/9qoWqWEHCYrcOtWxqNv/qdOW89nzwbAs45I1auVxIyfA1G9Wkk5RLnAElDY9eu3MejVVVZxSehJ7GzzY+CAB2cGNWuUksOkQ/fvZ2LmnGjMnBOFY8eT5LAhFHcqhNnTu6BFMw85RDnEElDQmbM30H/wCkTvvyCHrE7+/DYI7lcbA/rVQf26ZeQw6cDx2GSsWRuLVWtiDPGZy465M7qhW5cqMqYcYAkoJC7+CvoOXK7bafd50bplRXQN9EaXzt5wLs7VSrV0/fptrAmLRWhYHNaui5XDpjDtp0C8+EJ1GVM2sQQUEBt3BX36/YGTp67Jocc878qn/pUqWQRdA73RNbAKmgW4y2FS0F9/n8SasFisCYvFxUtpcth0fvmxM4L61JAxZQNLwMJOnb6GXkG/I/7EVTlkaI19yj06O3B34yOmSjhy9DJCHx749x+4KIetUCYeHIIsY/rPgejdk2cEOcUSsKBLl9PQo89vOHzkshwyjUKFCqLbwzLo3NFLDlMOJV+59egb//qN8XLYiilzJrxwTg9+7nKIJWAhGRn30aVXCHbsPCOHskmZHwotVa9WEl06e8GnQTk09nGFgwOf7c6OiMhE7Nh1Fjt2ncGOXWdx48Yd+RJ6inz5bLB6aRD8/dzkED0FS8BC+g9egdC1MTKmh4oUsYVPA1c0rF8WjXzKoVmAO+ztC8iXmVL8iavYtPkUInckYsfuszh3Tr+reFqDkiUKI3TFS6ji5SKH6AlYAhYwZtxGzJgdJeM8suz1Ur2xtyuABg3KorFPOTT1d0dTf3cUKJBPvsyQ0tIysGnzSWzafArhkQmIib0iX2JQ6p3t1qxRCmEr+8LBwVYOkcASyKMp/9uJjz/fImPKofz5bR6cITwsBE9PZ5QpbYzVTY/FJOPYsSQci0nC35tPYefus/IlpIAO7TwRMr+njElgCeTB6jUxGPDyChmThRQrZgevys7w8nSGp6czvD1dHvy6sjMKFtTfWUPWwf7o8cs4HpOMY8eTDTtj93ny5bNBOddiSDyj7XIVI4Y2xFeftZIxPYYlkEvHY5PRpuN8pKSkyyFSgUcFJ3h7PSgEL09neFV2hoODHYoVs4ODgy0cHOxgZ5tf/rZcuX8/Eykp6UhJvYPU1HTcSEnHuXMpOBaThGPHk0x9sH+SVi0qYuwoX+zcfRaffKH9WfL3E9tj0IA6MqaHWAK51D5wIU/rdc7ONj8cHB6UQrFidnAo+vDXD0siayXKlJR0pKTcQUrqw3+mpCM1LR0pKem4kXIHN29miH8zPUnRorYYO8oXI99oDACIib2CRgEzxKu0sWFNfzRq6CpjAksgV5S5EUxkvTp39MK7o/1Qp3bpf+TtOi/Arj3ab6xUtUoJbN4YDHs7PpEm6e/Cqs4tXHxQNwVQwqWwjIhUVapkEUz4ug0WzunxrwIAgJ7d9bEp/LHjSRj97kYZE3gmkCMxsVfg12IW7t69L4c0MevXrjh3LgUTv4/ENSvcKYqsW59e1TF2tN8zNx9KSr4Jz+r/k7FmJk9oj8HBvD/wOJZADnR7YQm2bDstY02ULeuAo9HDATxYU2bS9zuwdMVR8Soiy6tTuzSGDmmAvkE15dATDX19DZb8cVjGmsif3wbhfw/mRkmP4eWgbPr2uwjdFAAADOxX+9Gvq1criZnTuuCn7zuibh2u9U/KqFmjFCZ90xZ/rw/OdgEAQP++tWSkmXv3MvHeh3/J2NR4JpANO3efRfvAhTLW1LH9I1CmzJMnU82Zvx9z5u83zcYipKyqVUpgcHAdvDywXq7nZ+jlBnGWTz9q/ugpJrNjCWRDm47zsWffeRlrZnBwXUye0E7G/8IyoLzw9nLB4OA6GBxcN8/rPIX8fhjD3lgjY01FbB7MfYrBEniubyZF4Otvt8tYU5FbXka1qtm/pskyoJyoVLE4Xh5YF4OD66BIEcutvdMoYKaudtpr06oi/ljcW8amwxJ4hoOHLqFp6zky1lRQnxr45cfOMs4WlgE9SwV3RwwOfnDwd3S0l8N5Nnvefowau17Gmvru23Z4eWBdGZsKS+AZXnjpd/y56aSMNRX+92DUqJ63U1iWAT2unKsDXh5UD4OD6yi+Z3RDv+mIi9fPrntOTvbYE/GKqefc5O4ujwksWHRQdwUwsH+dPBcAAAwaUAebNwTj+4nt+TSRiZUpUxTvvxuAzRsH4p2RTRQvAAC6uxl77dptfDleX5d71cYzgSe4ffsu6jWZjvPn9bW5R/Su1+BRwUnGeTZn/n7MX3gAe6P0c/OblNO2dSUEdvJCYCdvuDgrf+CXWrafh6hofZ2Frl3RF36+5WVsCiyBJ/jkiy34/sedMtbU6JFN8N8PmsnYorZuT0Do2hiEhsVydyuDqV6tJLo8PPDXqllKDqtqTVgs+g1aLmNNNfV3x+plQTI2BZaAEBd/BQ399LHyYZbSpYogetdrKFSooBxSRFpaOkIfbm6+JiwW9+7x82GNnJzsEdjJG4GdvNChbWU5rKm+A5dj7bpYGWtq2k+BePGF6jI2PJaAMPyttVi85JCMNaXleujxJ65iTVgsQtfG6GqyDz1dy+Yejy73lC5VRA7rgh6fvPP2csGu7UNkbHgsgcfsjTqP1h3my1hTAX7uCF2uj9PU8IjER2cICYna7hhF/1TFy+XRgb9eXeu42a/Hy67jv2iNYa82kLGhsQQeM/CVlVi5+riMNbU+tB8a+5STsaZu37n76FJR6JoYpGfoY1VVsylTuihaNK+ALp280bmjlxzWvbt378PHfwZOnromhzTj6uqAI1EPFmY0C5bAQ7v3nkPbTgtkrKk3hvvgi09aylhXTp2+hi3bTiNy51ns2HkGp07r5wfaiPx83eDfpDz8fN0Q4Oee67V89GLl6uMY+MpKGWvqq89aYcTQhjI2LJbAQ68MW40/lutnKebKlYpj57YhKFDAun7Id+89hx07zzwqhStXb8mXUA5Uqlgcfr7lEeDrjhbNPVCmtD6v8efFsDfXIOQ3fSw1DQDlyxXDoX3DZGxYLAEAx2KS0aTpTBlratHcnujUwVPGVmd7eAK2hSciPDIRO3ad0c2GPHpVqFAB+Pu6oWVzD7RoVgE1qmv7OKcakpJvon6T6bhx444c0oyWD2OojSUA4L0P/8S0GftkrJmXB9bFd98+f5VQa5OecQ9btyVg6/bT2Lr9NKL3X5QvMaV6dcs8Oug3C6ggh03h92VH8erw1TLWTK2apbHtr4EyNiTTl0BaWjoqV/sRt+/ck0OaqOjhhMgtL+d56V5rkJKSjsidZxAbl4zjMcmIibuCmJhkQ15Csi2YH15ezvD2coG3pws8PYvD29MF3l7Oqs3/0Ls3R63D/EUHZKyZJQt6ob3O5lcowfQl8OvMfXj3gz9lrJnfFr6Adm0qydhUkpJvIuZhKRyPSX5UEolnbsiX6k7JEoXh5eUCb09neHk6w+vhgV6J5T6M5vbtu2jaeg5i467IIU106eyN+bO6y9hwTF8CrdrPwz6drGMy5m1f/Of9pjKmh27fvvvwjCEZsbFXcDw2GRcupCI1LR1paRlIS0tHaloGbt3KkL9VITZ48YXqaOrv9uDA7+WC4k6WX4LZTLaFJ6BLzxAZa+bg3mFwK19MxoZi/GsOz7Av+rxuCqBFMw8WwHPY2xdAndqlUad2aTn0D/fvZyItLR0zZkfh0y+3ymEAmQBsgMxMwMZGDj7wrLFHMlG6dBH07/v/+z1T3jT1d8enHzXHx59vkUOa+H3pEYwe2UTGhmJdzx9a2IpV+pgY5uRkn63tIil78uWzgYOD3TO2BH14cH/WQf5ZY4/ZtPmUjCiPRr7RGL26V5OxJpau0M9j40oxdQmsXhMjI038MKk9KnrwmrGlbd1+WkYWd+jwJZw/nypjyqMfJ3dA1SrZ30JVKYePXMb+A8Z+is20JbBn33ldTFd//90AdA2sImPKoz37ziMlJV3GiojYeUZGlEeFCxfE1B86IV++7J2RKSlsfZyMDMW0JfDnXydkpLrePavjvXf8ZEwWsGv3WRkpRs33MpP6dcvg5x87yVh16zfGy8hQzFsCGm8d6dPAFb/8L3cbxtPz7X3q/QDL27OXS2wr5cUXauCD9wJkrKqo/RcMfcnPlCVw7dpt7Nmn3Q+uq6sDpv8ciPz5tT/VNaroA+o99RV94ALu3zfvY9ZKe3e0Hwb213YJh20RCTIyDFOWwE4NT98LFMiHWb904eQhBd24cQfxJ67KWDH37mXi0OFLMiYLmjKpPTq0024trR0Gvu9jyhJQ81KBNHdGNzRpbM4NrdVy5FiSjBSnxXuazZzpXTXbW+PpjxtbP1OWwIGD2jzy9cuPna1y8w9rExObLCPFafGeZmNvXwDzZnVH9Wol5ZDiDhy8aNgVcE1ZAlp8a5s8oR2C+tSQMSkgNk79A7Je1rsxutKlimDhnB6oXKm4HFKcUf+OTVcC6Rn3VN8fd9I37TA4uK6MSSFazP/Q4j3NqqKHE0Lm90KliuoWwekEY/4dm64E1H7Ua8qk9hgyiAWgptMJ6pY8YNwDhF55eTrj90UvoIqXixxSzIWLaTIyBNOVwLVrt2WkmOk/B2r+aJsZndFgyemUlHRcvWa8fRD0rHKl4li2pDfq1y0jhxShp53PLMl0JXAnXfnNY4oVs8Mfi3ujd8/qcogUdvNmBq6qWPSPU/ssk4By5Yph1dIgtGlVUQ5ZHG8MG0RBhTdur1a1BNaueEmVDyX928VL2p2ya/neZla0qC3+WNwbAxRe0rtQIWOuvK/sEVGHnJ0LychiunT2xobQfqhZw/ibg+vV5aSbMlLNpcssAS39OLkDPvpAuT05SpUqIiNDMF0JVHB3hJ1tfhnn2bgx/pg/qzscHOzkEKnoyhXtrstr+d70wDsjfbFobk+ULFFYDuWZt6d6N6HVZLoSAGDRGbvubo74beELGDfWXw6RBq5quEm9mg8d0NN16uCJLRsHooMFN4kvWaIwatU05hm+KUuga6C3jHJlYP86iNwy2PQbw+vJ9RTtnuC4fl2796Z/cnV1QMiCXhj/RWuLLNTYUyc7nSnBlCUwZFC9PO3kVb1aSYTM74kpk9qjSBFbOUwaStGwBFLS1NnEhrJv2KsNsDv8FfTsVlUO5chrQ+rLyDBMWQIA8M2XbWT0XCVcCuPLT1siYvNgTVc0pKe7efOujFRz82aGjEgHKlUsjlm/dsXvi16Av5+bHH6urz9vpckyFWoxbQm0a1MJC2Z3h0s2nhby9nLGV5+1wpH9w/H6MB85TDpy65Z2JXCLJaBrbVtXwprlL+H3RS+gS+fsXRL+cFxTDH+toYwNxZgPvmZTYCdvNPWvgGkz9yJsXRyOHk/C7dt34ehohypeLmjSuDzatamEAD93+VtJp+7c0e5ArMZERMq7tq0roW3rSrh4KQ0b/zyBiJ2JOHYsGZeTbiJfPsCtfDH4+7qhd68a8Kxs3DOALDYAMjMzuStSlvv3M3WxuTXlzhujwrBg0UEZq8LPtzzWrugrYyJdM+3loKdhAVg3Laf239furYlyjSVAhpI/v3YfaX6BIGuk3U8MkQKUXhvqWbR8b6Lc4qeWDMVWgSVBssvOTrv3JsotlgAZir29dg+82dsXlBGR7rEEyFAKF9buQKzlexPlFkuADMWhqHbLeBQtwhIg68MSIEMpVky7pby1fG+i3GIJkKE4OdrLSDVavjdRbrEEyFCciz9/LSilZGcdKiK9YQmQobiU0O5A7KLAblZESmMJkKGULlVURqopXdKYe9CSsbEEyFCKO9mjUCFt5gqULesgIyLdYwmQ4biVd5SR4goWzIcypXkmQNaHJUCG4+6mfglo8Z5ElsASIMPxqKD+ATkve1YTaYklQIbjWdlZRorT4j2JLIElQIbj5an+AVmL9ySyBJYAGU61KiVkpDgt3pPIElgCZDiurg4opfIz+zVrlJIRkVVgCZAh1aldWkaK8fJ05uJxZLVYAmRIDeqVlZFi1HwvIktjCZAhNWyg3oHZp6GrjIisBkuADMm3cXkZKUbN9yKyNJYAGVKRIrbwbaL8wdnV1QHVq5WUMZHVYAmQYbVs7iEji1PjPYiUxBIgw2rTqqKMLK5NS+Xfg0hJLAEyrPp1y6JSxeIytqiO7T1lRGRVWAJkaF06e8vIYnp0qwp7e232LiCyFJYAGVqPrlVlZDFK/ruJ1MISIEOrW6c0fBpY/jn+UiWLoGugcmcZRGphCZDh9XuplozybEC/2jIiskosATK84H61UcKlsIzzJJglQAbBEiDDy5fPBsNeayDjXBvYvw4quKu/exmREmwAZGZmZsqcyFBu376LmvV/QVLyTTmUY7vDX+EmMmQYPBMgU7C3L4D3xvjJOMdGvtGIBUCGwjMBMpVuLyzBlm2nZZwtnpWdEbllMAoWzC+HiKwWzwTIVL75sjXs7XJ3EP/2qzYsADIclgCZStUqJTDtp0AZP9f4L1ujVQsPGRNZPZYAmU63LlXw8w+dZPxUn37UHMNesdzTRUR6wnsCZFrbwhPw3od/4cjRy3IIAFC2bFF89Wkr9OjG5SHIuFgCZHpzF+zH8pXHsDfqAm7fzkCDemXRpXMVvDqkHmx5D4AMjiVARGRivCdARGRiLAEiIhNjCRARmRhLgIjIxFgCREQm9n+l/I+Kh/cMlgAAAABJRU5ErkJggg==;" parent="1" vertex="1">
          <mxGeometry x="820.93" y="290" width="38.15" height="44" as="geometry" />
        </mxCell>
        <mxCell id="Wp2VC6QCwjRFlCdOOu6L-11" value="kuard" style="aspect=fixed;sketch=0;html=1;dashed=0;whitespace=wrap;verticalLabelPosition=bottom;verticalAlign=top;fillColor=#2875E2;strokeColor=#ffffff;points=[[0.005,0.63,0],[0.1,0.2,0],[0.9,0.2,0],[0.5,0,0],[0.995,0.63,0],[0.72,0.99,0],[0.5,1,0],[0.28,0.99,0]];shape=mxgraph.kubernetes.icon2;kubernetesLabel=1;prIcon=deploy" parent="1" vertex="1">
          <mxGeometry x="270" y="650" width="50" height="48" as="geometry" />
        </mxCell>
        <mxCell id="Wp2VC6QCwjRFlCdOOu6L-12" value="kuard" style="aspect=fixed;sketch=0;html=1;dashed=0;whitespace=wrap;verticalLabelPosition=bottom;verticalAlign=top;fillColor=#2875E2;strokeColor=#ffffff;points=[[0.005,0.63,0],[0.1,0.2,0],[0.9,0.2,0],[0.5,0,0],[0.995,0.63,0],[0.72,0.99,0],[0.5,1,0],[0.28,0.99,0]];shape=mxgraph.kubernetes.icon2;prIcon=pod" parent="1" vertex="1">
          <mxGeometry x="270" y="750" width="50" height="48" as="geometry" />
        </mxCell>
        <mxCell id="Wp2VC6QCwjRFlCdOOu6L-13" value="kuard" style="aspect=fixed;sketch=0;html=1;dashed=0;whitespace=wrap;verticalLabelPosition=bottom;verticalAlign=top;fillColor=#2875E2;strokeColor=#ffffff;points=[[0.005,0.63,0],[0.1,0.2,0],[0.9,0.2,0],[0.5,0,0],[0.995,0.63,0],[0.72,0.99,0],[0.5,1,0],[0.28,0.99,0]];shape=mxgraph.kubernetes.icon2;kubernetesLabel=1;prIcon=svc" parent="1" vertex="1">
          <mxGeometry x="355" y="750" width="50" height="48" as="geometry" />
        </mxCell>
        <mxCell id="Wp2VC6QCwjRFlCdOOu6L-15" value="" style="rounded=1;whiteSpace=wrap;html=1;arcSize=3;dashed=1;fillColor=none;" parent="1" vertex="1">
          <mxGeometry x="800" y="520" width="270" height="240" as="geometry" />
        </mxCell>
        <mxCell id="Wp2VC6QCwjRFlCdOOu6L-16" value="gateway-nginx" style="aspect=fixed;sketch=0;html=1;dashed=0;whitespace=wrap;verticalLabelPosition=bottom;verticalAlign=top;fillColor=#2875E2;strokeColor=#ffffff;points=[[0.005,0.63,0],[0.1,0.2,0],[0.9,0.2,0],[0.5,0,0],[0.995,0.63,0],[0.72,0.99,0],[0.5,1,0],[0.28,0.99,0]];shape=mxgraph.kubernetes.icon2;kubernetesLabel=1;prIcon=deploy" parent="1" vertex="1">
          <mxGeometry x="835" y="530" width="50" height="48" as="geometry" />
        </mxCell>
        <mxCell id="Wp2VC6QCwjRFlCdOOu6L-17" value="gateway-nginx" style="aspect=fixed;sketch=0;html=1;dashed=0;whitespace=wrap;verticalLabelPosition=bottom;verticalAlign=top;fillColor=#2875E2;strokeColor=#ffffff;points=[[0.005,0.63,0],[0.1,0.2,0],[0.9,0.2,0],[0.5,0,0],[0.995,0.63,0],[0.72,0.99,0],[0.5,1,0],[0.28,0.99,0]];shape=mxgraph.kubernetes.icon2;prIcon=pod" parent="1" vertex="1">
          <mxGeometry x="835" y="630" width="50" height="48" as="geometry" />
        </mxCell>
        <mxCell id="Wp2VC6QCwjRFlCdOOu6L-18" value="gateway-nginx" style="aspect=fixed;sketch=0;html=1;dashed=0;whitespace=wrap;verticalLabelPosition=bottom;verticalAlign=top;fillColor=#2875E2;strokeColor=#ffffff;points=[[0.005,0.63,0],[0.1,0.2,0],[0.9,0.2,0],[0.5,0,0],[0.995,0.63,0],[0.72,0.99,0],[0.5,1,0],[0.28,0.99,0]];shape=mxgraph.kubernetes.icon2;kubernetesLabel=1;prIcon=svc" parent="1" vertex="1">
          <mxGeometry x="920" y="630" width="50" height="48" as="geometry" />
        </mxCell>
        <mxCell id="Wp2VC6QCwjRFlCdOOu6L-19" value="Certificate" style="rounded=1;whiteSpace=wrap;html=1;fillColor=light-dark(#2875e2, #ededed);strokeColor=none;fontColor=#FFFFFF;fontStyle=1" parent="1" vertex="1">
          <mxGeometry x="962.5" y="560" width="80" height="40" as="geometry" />
        </mxCell>
        <mxCell id="Wp2VC6QCwjRFlCdOOu6L-20" value="Route" style="rounded=1;whiteSpace=wrap;html=1;fillColor=light-dark(#2875e2, #ededed);strokeColor=none;fontColor=#FFFFFF;fontStyle=1" parent="1" vertex="1">
          <mxGeometry x="562.49" y="700" width="80" height="40" as="geometry" />
        </mxCell>
        <mxCell id="Wp2VC6QCwjRFlCdOOu6L-21" value="Client" style="shape=umlActor;verticalLabelPosition=bottom;verticalAlign=top;html=1;outlineConnect=0;" parent="1" vertex="1">
          <mxGeometry x="1220" y="630" width="30" height="60" as="geometry" />
        </mxCell>
        <mxCell id="Wp2VC6QCwjRFlCdOOu6L-22" value="NodePort" style="rounded=1;whiteSpace=wrap;html=1;fillColor=light-dark(#2875e2, #ededed);strokeColor=none;fontColor=#FFFFFF;fontStyle=1" parent="1" vertex="1">
          <mxGeometry x="1040" y="640" width="80" height="40" as="geometry" />
        </mxCell>
        <mxCell id="Wp2VC6QCwjRFlCdOOu6L-23" value="" style="endArrow=classic;html=1;rounded=0;entryX=1;entryY=0.5;entryDx=0;entryDy=0;strokeColor=#FF3333;strokeWidth=2;" parent="1" source="Wp2VC6QCwjRFlCdOOu6L-21" target="Wp2VC6QCwjRFlCdOOu6L-22" edge="1">
          <mxGeometry width="50" height="50" relative="1" as="geometry">
            <mxPoint x="700" y="1140" as="sourcePoint" />
            <mxPoint x="750" y="1090" as="targetPoint" />
          </mxGeometry>
        </mxCell>
        <mxCell id="Wp2VC6QCwjRFlCdOOu6L-24" style="edgeStyle=orthogonalEdgeStyle;rounded=0;orthogonalLoop=1;jettySize=auto;html=1;entryX=0.995;entryY=0.63;entryDx=0;entryDy=0;entryPerimeter=0;" parent="1" source="Wp2VC6QCwjRFlCdOOu6L-22" target="Wp2VC6QCwjRFlCdOOu6L-18" edge="1">
          <mxGeometry relative="1" as="geometry" />
        </mxCell>
        <mxCell id="Wp2VC6QCwjRFlCdOOu6L-25" style="edgeStyle=orthogonalEdgeStyle;rounded=0;orthogonalLoop=1;jettySize=auto;html=1;entryX=0.995;entryY=0.63;entryDx=0;entryDy=0;entryPerimeter=0;" parent="1" source="Wp2VC6QCwjRFlCdOOu6L-18" target="Wp2VC6QCwjRFlCdOOu6L-17" edge="1">
          <mxGeometry relative="1" as="geometry">
            <Array as="points">
              <mxPoint x="910" y="660" />
              <mxPoint x="910" y="660" />
            </Array>
          </mxGeometry>
        </mxCell>
        <mxCell id="Wp2VC6QCwjRFlCdOOu6L-26" style="edgeStyle=orthogonalEdgeStyle;rounded=0;orthogonalLoop=1;jettySize=auto;html=1;entryX=0.995;entryY=0.63;entryDx=0;entryDy=0;entryPerimeter=0;strokeWidth=2;strokeColor=light-dark(#7fba42, #ededed);" parent="1" source="Wp2VC6QCwjRFlCdOOu6L-17" target="Wp2VC6QCwjRFlCdOOu6L-13" edge="1">
          <mxGeometry relative="1" as="geometry">
            <Array as="points">
              <mxPoint x="520" y="654" />
              <mxPoint x="520" y="780" />
            </Array>
          </mxGeometry>
        </mxCell>
        <mxCell id="Wp2VC6QCwjRFlCdOOu6L-27" style="edgeStyle=orthogonalEdgeStyle;rounded=0;orthogonalLoop=1;jettySize=auto;html=1;entryX=0.995;entryY=0.63;entryDx=0;entryDy=0;entryPerimeter=0;" parent="1" source="Wp2VC6QCwjRFlCdOOu6L-13" target="Wp2VC6QCwjRFlCdOOu6L-12" edge="1">
          <mxGeometry relative="1" as="geometry">
            <Array as="points">
              <mxPoint x="350" y="780" />
              <mxPoint x="350" y="780" />
            </Array>
          </mxGeometry>
        </mxCell>
        <mxCell id="Wp2VC6QCwjRFlCdOOu6L-28" value="Manages Certificate Issuing Process" style="rounded=1;whiteSpace=wrap;html=1;spacingLeft=5;spacingRight=5;" parent="1" vertex="1">
          <mxGeometry x="477.49" y="400" width="165" height="80" as="geometry" />
        </mxCell>
        <mxCell id="Wp2VC6QCwjRFlCdOOu6L-30" style="edgeStyle=orthogonalEdgeStyle;rounded=0;orthogonalLoop=1;jettySize=auto;html=1;entryX=1;entryY=0.5;entryDx=0;entryDy=0;strokeWidth=2;dashed=1;endSize=12;endArrow=block;endFill=0;" parent="1" source="Wp2VC6QCwjRFlCdOOu6L-29" target="Wp2VC6QCwjRFlCdOOu6L-28" edge="1">
          <mxGeometry relative="1" as="geometry" />
        </mxCell>
        <mxCell id="Wp2VC6QCwjRFlCdOOu6L-29" value="Get certificates and deploy together with a Gateway" style="rounded=1;whiteSpace=wrap;html=1;spacingLeft=5;spacingRight=5;" parent="1" vertex="1">
          <mxGeometry x="757.5" y="400" width="165" height="80" as="geometry" />
        </mxCell>
        <mxCell id="Wp2VC6QCwjRFlCdOOu6L-33" style="edgeStyle=orthogonalEdgeStyle;rounded=0;orthogonalLoop=1;jettySize=auto;html=1;entryX=1;entryY=0.5;entryDx=0;entryDy=0;strokeWidth=2;dashed=1;endSize=12;endArrow=block;endFill=0;entryPerimeter=0;exitX=0;exitY=0.75;exitDx=0;exitDy=0;" parent="1" source="Wp2VC6QCwjRFlCdOOu6L-28" target="Wp2VC6QCwjRFlCdOOu6L-32" edge="1">
          <mxGeometry relative="1" as="geometry">
            <mxPoint x="768" y="450" as="sourcePoint" />
            <mxPoint x="652" y="450" as="targetPoint" />
          </mxGeometry>
        </mxCell>
        <mxCell id="Wp2VC6QCwjRFlCdOOu6L-35" value="" style="shape=image;verticalLabelPosition=bottom;labelBackgroundColor=default;verticalAlign=top;aspect=fixed;imageAspect=0;image=data:image/png,iVBORw0KGgoAAAANSUhEUgAAAoAAAAIQCAYAAAARq99gAABEPElEQVR4AezBgQAAAADDoPtTX2EA1SoAAAAAAAAAAAAAAAAAAAAAAAAAAAAAAAAAAAAAAAAAAAAAAAAAAAAAAAAAAAAAAAAAAAAAAAAAAAAAAAAAAAAAAAAAAAAAAAAAAAAAAAAAAAAAAAAAAAAAAAAAAAAAAAAAAAAAgLN3j1GWJWkXx3dzbNu2bdu2bbsxtmeaOZUnzs2eO7Zt21bbVtV+96qsXvmuRnVV3nOP8v/hl9EoPlWxcmfgCX9D27vS9T3RvVzr/hlv6QWdNwQM1en9RwAAsKjLudKeLjokfConxldc6y6hoQFO/R8AAEClF7nohPCZqvRpT3WeEDAU//9fAABA0QfCW+n3nuiCoSEATvkHAABQ9ILwKn3L39D2IaDnNn4AAADrdAkXHRtetVpPCwE9t/EDAACo9H4XeUb7eqrtQn0GUAQAAHbSti7aLzyziW4TAvqMIgAAUHT1cCMqvSoE9BlFAACg6M4NBsDdQkCfUQQAAIoeGG7Ih0NAn1EEAABqPYgACAIgAAAzIwACBEAAAAiAAAEQAAACIEAABACAAAgQAAEAIAACBEAAAAiAAAEQAAACIEAABACAAAgQAAEAIAACFAEAAAIgCIAAAPQMARAgAAIAQAAECIAAABAAAQIgAAAEQIAACAAAARCgAAAAEACbBAIgAAAEQIAACAAAARAgAAIAQAAECIAAABAAAQIgAAAEQIAACAAAARAgAAIArG0yXj0e7lpP3qjSnbxOFwjh1AiArVnUOVzpVq71hHhyPNZFN/JUO4bQHooAAOOxoys930V/CZ+OE13rE6508xBWEADnbFGXzrh7HBk+HYe41ju9pIuHMH8UAQDGoOha8ZvwFtgQH/RuOnsIBMC5Wl7lOyK8BQ6Px4Q2B2wBAwBqXTfjweGtUunnzspMaM0jADbvG9retd6zivptcK3nhTA/cj1YAICs4rnob+FVOsiVbhta0wiAzZrq/Bm/El6lDa51l9CpgQAIACh6fXhGJ7jWE0JrGAGwKRNdw5X+2kAd/+HdtEMIjaMAgwUAU+3oooPCjai025r9hEsAbMrd4vBwIyo9IITmydUgAQAmupeL3LCveKrzh9YSAmADrYcqvdxF68MN2ie0AlwCAQDsHG5cpb8623ihNaPogQTAVVrQWV1rnYs8B38MrQABEACwEJ6TI+KeoTWh1h0brN0HQmvEJeOnc/57qBUgAAIA9grP0QZX2snWNqFRW9TVGqtbrVeGRm+im7lov/AcHRZaAQIgAGDXcAv2GX3T6J20rYv2DTfgFqGRe3gcG56zX4ZOAQIgAKDSfTO6FbV+kvGSoRF7d3hG//FU24VGajtXeruL3JK9QqcAARAAMNXZMh4abkWlA13r1qFRWtLFXXRMeNXG3E+x6NzxmXBrat0xhObJNQBgsCq90UVuTaXjR/1Wa6VnzhBWvjza1b+Jrupaf3KRW/QbZ2s+1DhQgEEDgOWn4P4SblWl3Zy3XkOjU/SOVdTjV6Ptn1jrLi46LNyi9Zs7Swm2gAEAE1014/7hln3Jtc4XGp1Kz9yK7eB9PNU5Q6NT6TkuOjncog3x9NDmgQAIALhW/Dvcqlp/cqWrhEZnnS7hWu85g1Ynx8VnRnsmMs2dXbQYbtlJrvW0EDgDCADYEhNd0EXfCLfsSFe6d2iUcg7Ni7qaa91l4+9zUTeMc4RGafkyzA/DLTuESx8EQADAaky1oyvt6SK37GTXeklowLCk67noX+NfSYZcjQ4AoNaTXXRiuGUTT3W20MCg1kNXzj226vOe6jyh1oACjBYA1Lq1Kx3oIrfsZ17SpUIDAGsbV9rJRe7Au2j10jTawAAA9tEVXPTbcMv+51o3DvUY9tK5XPTJcMuOc6VHh+YBbAEDAIrOHZ/t5JN8rQeFeghLuqyL/hBu2X9c6waheQKXQAAA2WZr/dWQiJNc6cGhHsGiLu2iv4db9n0v6KKhboEiAMBaUvSQOKb15+MWdbVQ97Dpi4HvcEGISyAAgLWk6Ebx33CLvhLqAVR6XOstgio9P9QtcAYQAHAxF/0g3JqJrhHqGIp+Fm7JEZ7oXqF+AUUAgLUqz3251roWt4JfFeoUrugit+QPXqcrh/oHFAEA1rqiF7T04P8nQ53CQ8It+KIXdN5QL4ECBACg1l1cdFh4jr4f6hAqPb+Fld63eKrtQv0FeQoAQFS6imv9yUWek++FOoRaL5xz38dHhUAfQADA0F6GqPRpF3kOqlCHUOlhGT0H+3pRNwlhECjAqQAAptrOtd7mIjeq1vNCHcJEV3WRG/Zjr9MlQhj6JRAAAJZXi45t7EWQJV081DFU+nmD5/2WvJvOHsKgUIDNAAAU3TT2bSAolFAv4NENhL/18eIQhkkumwEAwJIunvFH4VU6overf+t0AVe6uYsev+nN5I/H1+On8efYN46I4+Kg+Fv8YtOTal/I+P54jmvdxYu6nHfStqHeKvp8eJWOdK37hDDaSyAAAMzUNPpgV7pVqDesbTzRtTcGtqJPxUHhhh0XP4g3uNKderdNOtEFXfS78Fap9Ne19KILL4EAAGBt46IXb0XT6B84q2Ghzk11tk1nGqcZD8zoVlU6PuO34mVe1KVDnVte2f1xeAt9zLXOF8JaWwEEAKDSrVz03fAZ+Es8qRfboLVu4KJ3xcHhnlgf33WtJzttd0KdmWq7TSuh/wqfgd874Tk0HpArAABWYVFXc9FT403xjo1BYqKb2dom1JmpzumiF8Q/wz13TOzlSlcJdSZhPeOt4jmu9c6Mb8n47LjBSpAfEVCAkQAAFJ1702rWfuGBWR+fca0bhAC2gAEAOLPXS4peH0eGB25DfDKuFTo1gDYwAABMdK+V82ujclK8K84dAgiAAABUumLGL4RH7n+u9OgQsDYvgQAAkAsJLnppnBBeQz7rqS4UAppAEQAAw7DcvPjz4TXqANe6YwgY/yUQAAAmuo2L/hde4052pZ1ozYJxt4EBAKDSi07z+gg+P74LIuASCAAA1jYZ3xzG6fq1l3TxELCVKEAPAQCm2tFFdXiz8HfXulIIGO4ZQAAAlp9y+1IYW2RfV7pOCBheGxgAAJZX/r4YxlY53BNdOwRsAQrQEwCA5R5/Hw5jVf7rWpcJAcPYAgYAoOhd4Zngd57q/CGg342gAQCotJOLjEZ8z1OdLQT0MwACAFDpHi7aEEZDKu0ZAvp3CQQAgCVdykUHh9GwWo8KAf05AwgAwG7awUXfC88FjvairhY6FYACdAQAUOntLvIcodKvOA+IfpwBBACg6BatnfvDm0JAd28BAwDwDW2f8ZfhVuCkuFYI6CoAAgDwgnCr8G1b24QghOyWAABQ6WIuOiLcMtR6RAgICtAiAEBRHe4E9vNU5wwBFKEdAIBKV3TRyeHO4AUhQC6tAABgIdwp7EdbGAQFaAEAYEmXddGJ4YH4rSu9P+MzXOuOrnT9jJffaFHXdKWbu+gx8fr4hisdn9ED8fTQfIEVQAAAlsOUe63Sz+M5cbHQVpnqbBnv61qfcNEJ4R77p3fTDqE1CxRgzgAACzqvi44L91KtL3ui24Qasfy+8bvj2B6H3YeF1i7IFQAAc/UUF7mH/uZadw/NRdEl4yPhHvpCCGwBAwAwL98N98zurV2GKHpkHBXukZNXtrrBCiAAoFm76exe0vVcdE/XelCnJrqXF3VDF5071IpKV+zZm78nuNajQq2a6Kqu9Nc13BLmkp7olq70gM7nQdE9N87JzE3OAAIAmlXpVi76VE/PgSUE6cuudI/QXNXapUe/76Nc6U6hTkx0ERf9LNwLlX419y9+il4cvwn30LHxKVe6FSuAAIDZTHVOF+0THogveaILhuai6HfhzlU63rVuF+rUVOd30W97FAKvEpqDW7nov+GB2Gd1r6TQBxAAUOt8LvpFeGD+7iVdKtSoShfryfbvhnhgqCcuGf8bbU/A5W3WE8ID80tnDvMWMABgy021XcYvu8iDVOnnjZ+JqvWInvze3hLqlVq3dtFJ4Y59JNSgG8Wx4UHKHHbmMiuAAIAtU/Sk8KBVelWoQXv2JNjuEOqdop3DHTvYO2nbUAO23VjvIg9arSewAnjmAAD5xOeif4cH7kjvpXOFGlH0j3CH1nuim4V66d06i4v+GO5UreuGZlbpAS7yCPznzFcBWQEEAKS9hYs8CpUeHJpZ0SXDHftQqNdq3acHf+bPCc2saBoehczp0JjN+gMAAIpeMaIA+P5QA+7Ug0bHVwn1mrVND1rDfDDUgAPCo1DrlWwBbx4AoOgDIwqAnw7NrOgZ4Q59PDQQjwx36BuhmUy1Y4c3vjsIxTwFBwCotXdGj8SXGqrJezrewrtXaBCmOpuLDg93ZN/QTHJ2NKNH5EMEwM0DANR6XUaPxEJoVh23xDl05ebvQBQthjt07tCMjgqPQuY0W8CbBwAoemB4FGo9u6Ga/HNA279sAy/qhqGZFH07PBIPZAVw8wAAy8+/HRceuA1e0mVDMys6erghtgPrdImOg//dQzOp9HwXeQSOW2mHNF5N/CAAgEpvH8EFkKXQzKbartMLAZVuGxqcokMG3f5nqvO46ODwoNV6G42gAQBbZp0usPK+6yAd7kVdLjSzBIGOg+zFQoNT9P0Oa/bEUAOe4iIP2P+cuRwau6Z+IABArRsP9B3Uk5vYAozovAn0hpWnzQam6GPhTtR6XqgRRbuHB+hYZw6HWAEEAGydJV3PRf8KD8QRcc9QYxZ1tYzuyFGhgVoId+TVoUZY27jSTgPrC/g/L+omobWi6R8QADDV+V3rbT2/GHKia+3hJV081KhaN+jw93VAaKDeG+7Im0KNqnXrlW3t3jpu41zNnA3NjreAAQCLOocrPcC1dnHRQkw7VWtdvM6VHuYFnTc0F4u6oYvckf1Dg1TrPSMKgCtqXSnjs+IdMYlpxxacORn3d+Zo6P/YuwvoOI48j+M/hZmZmdkby1U9crS8oWVlmXcdstRVsgN3gadlZmZmZmZmZubdMJqtuX9P1Ae5xNZI0z3dPV+993mzGGvKo9F3qruq5o8ZQAAACEACEOwDCAAYKAQgAYj6ByAAAAQgAQgCEAAAApAARP0DEAAAApAABAEIAAABSACCAAQAgAAkAEEAAgBAABKAIAABAPVHABKAIAABACAACUAQgAAAEIAEIAhAAAAIQAIQBCAAoO4IQAIQBCAAAAQgAQgCEADQJFqwZBu59Cz5cJl8fLE9vrob29/1gjcvvP9Dv9IPp9zv4V/Ivoc6OvQ+j/twv8btoHs//oNdf88ufaU9TikJj5CLuxjVCBgEAEDH8Ph+8vE18mGFaQNdWGveq9bkEUY1ADEIAAAfHtWD8APWyIVgVG0Y9AEAAPhwWW8jAIgvNkJ1MQCDDACSeI58mC4gAoBxI1QTAzCoAGA07GSP1xIqBcFqDU8cboTqYQAGFQD49OmFBgDgwruNwD2AAIAqkIbkw1+KjwCwOnj5HkaoFgZgEAFAa/LEcgIASJ9khGphAAYRALh0rKQAAF5h1G9gEQgAIEmXEiblQPycEdgGBkBTjIzvriScLh8eqyS9SD69REl8jNyE1+jUVkYVBfv7KikAgO8YgRlAAHU2PL5DJ/R8+K5Zb9p3YoX5kFx6b6OKAQEIApAArB0XT1OSPrNwdiC6kQEwNrapXLxUPl43h18An9bI+DFGFQECEAQgAVg7SfiPUl60Cy/c1QgYeMPpnvLh8/M9I9Q8yqgCUHwAAgQgAUgAArXV2cMr/Ma0e2DaXGwEAhAEIAhAArCKgOw2CB++W8DpAA8zQh8VH4AAAUgAEoBALfn41IJ+vm5Wkh5phP4oPwBBAIIAJACrD1gUDpJPVzZybzAUE4AAAUgAEoAAs3+z4IzAPYAgAEEAEoBAFfj0lyX8nH3QCAQgCEAQgAQgqoFtX9olWMV+m31SfgCCAAQBSAACldaaWFDiOaH3MgL3AIIABAFIAPYTkEycUWIAPssIBCAIQBCABGA/AUkcKe2XgwvvNgL7AIIABAFIAKJ+WvFsJeGzhfHxNSXODh1ZYgB+0QgEIAhAEIAEIOrHxwsKfk3+xKgULm6d7wFYgp8ZgVXAIABBABKA/QMCMPcp0y7BL4xAAIIABAFIAPYbCMAknlfSIpDvGYFFICAAQQASgP0GAvD08S3t8c+mXbAvG4EZQBCAIAAJwH4DAZhx8eEl/Kx92AgEIAhAEIAEYP+BAMw9v+Dn9SIjEIAgAEEAEoCoCgJwbGzTmUhrFyKJ0ahsIABBANYdAUgAggAsnkvHCrkn0PZPNCoVCEAQgLNAABKAAAGYOXZqCyXhieaz8mFFT57XqRftZVQqNDAAQQCCACQAQQAWb3RqKyXxLvLhTHt8jJLwCPn0m109Jxf/YFQ+ND8AQQCCACQAQQAWb3TZbva4prvnFN9qBPYBBAEIApAARB0RgEl4StfPyaVjRuUDAQgCkACcHwIQIACTpfvIhVu6fD4rNHrBdkblAwEIApAAnDsCECAAR6c2kwtf7P75xPcZgUvAFTdt/ioXvmWPH7LHT9z2sxivG8zxIAAJQAIQIAClIfn05XN6Pi6eZoRKLgJBEr6mJF2qxZP7G/0/0pBa6bCS9JlZIA7KuBCABCABCLAKeDN7fMUcn8v3jVDBk0Dwi67vTc22R3IxlQ/XM34EIAFIACK3YMnmGp44/LYZn/TeZkw+PFY+Lun862wj4EXxHmpNnqjh8R2MamiwAtBmRezxK/OYXXmgUWmyX9Ct83fusH9tNODuOADx6uz9ymhO7F7YmdhpDxYCkAAkADEadpJLz5KPz5IPnzG/N2u7HPurZ+63eb2S9AkaGT9G0pCq/TUYAdj5+41Pzhd8zE36BaOe6sxGpqfKh/Pl44uVpJ+UDz8z/zLr7/i+rs49XP/I9i407+xcynPpuUomF8nFrQfqEjDWy8clRvNlIbiNkvQDjCkBSAASgM23KBzdiYIk/Dj/ZVuAa5Wkb89mDEtbOXr6+JZqxUNmLUmvLPg1+avsz5m3bmbAhtM95SeO62z07MM7enD6x1oNpycYzUs2S+PTxTNj/vk8SHtorfmReb18+shsHIwahQDMmfQSo97IX5/hy4wrAUgAEoDN0wmDcLH5UR/erFead2aXjI2KMnPKRbtpuho3F95fqV+0btlR9vg8+fDv8leCpj+YueH/pEbdA4i3GfVY/h75N8aXACQACcD666x6C6Py4V1mdSW2Z3DhI3JxoVHPEYC9DsBPSVObGHUtuw3AhXfnM8z9NjPbPVnrc4wJwMxN8sv3MCpG+kjGmAAkAAnAWpu5v+qrFd6n6y09v0xHAPYyAH8qF3cx6kp2z6EPr8jDr4JWKQkv0/D4fkZ1QgAa+11iVBhpSD5+jwAkAAlAArB+FoWDZmb8pk274q6XCxf2bMEIAdirAPydRsLeRl1x8QFK0n/WY1zTlfb4knw2qRYIwNVacMmORoXy4VEEIAFIABKA9eLSR2eXSGr4qf6z2WxgJWYACcAf5Rvpztro1FbZSt78Q0e9xOvMEk4CqQEXPmFUsHwWe40hAEEAEoCVt2v+i7/G/qpW2jKam3kHIAFo/9+uV2xnl4l9+EYDxvm9Ghnf3aiqmAGMFxiVIT8qkQAEAUgAVpeLx8uHPzXmEk+SPsSoe/MIQALwViXxPKOuZJeJffhpc2aY4h+yLZKMKogATNJ7GpXCh1cbAhAEIAFYUS7eRz7c0MCD3CeNukYAziEA40ez+0aNupJtvOzDtxs4y3RdVc88JgDjsUal8GHKEIAgAAnACspmbHxY1+DVfk806g4B2EUAfkNu4u5GXZOG5MOHTbuh/pqdDmFUJQTg0n2MStG53EwAggAkAKvGhcfn22w02Bq1wqjRrBGAGw5AF24xb1IrHTaaMx/GTbuh/pXdVsEMYCV/Do4wKkGfXuMEIAhAApD4y13VxeXJOw5AAvAX8vE12RYtPTkvd/HSg+XDzQ29x+yf+WXGSuIS8IhRObLfWQQgCEACsCp8uFt+2XeAfENjY5sabQwBaNyEl08fZE7V8PgORj3lw4dMu4H+IhcPM6omAtCMG5XkLYYABAFIAFZAtjebD1cN6P5fwWgjCMDCTSzI9/prmD/Jjx9qVGnsA/huo1L48BtDAPYZCEAC8NipLeTTbw7wm9GtGp443GgDCMCiufCRBo7vb/ONryuPGcCb89sYCmU/b9V4vgQgCEAC0IUrSt+KxcWfd+4d8+Eyc35nfz4X7i8fH2eWmWeZj8qHq0v69P8RZgD7aHTZbvJhrWmXbMXMsW3t3kt/ma8srQUCMHO+UcFeyzj3PwBBABKArXiIfFhRSvT59ONy6VhX42j353VuzvbhbYUfn+QmvNGdIACL5NJzyzmWLX1554NG9rr/3/d+LliyuYbH95OP95JPLzFfmOfr7Wf58YO1QQBm/lTwLOBh8mE149z/AAQBSAD68LESxu5LPYmMJB5b6KVqF77IDGADL/+6cEsWN13vvZcdQ+fCcvnwx67PO86PfasPAjCXhOca9ZymNsneCxnj/gcgCEAC0KX3LnbM0pWdy7n2xmfUE6ePbykf3lHg97zY6A4QgEXy4a8FPb/r5/38stlBFy6c3SKp+L0sHI1qhwDMrZvZ1kg95cOLGFsCsCIIQAKw0APJ/2FOMuq57BdyEj5b0Pf9tg38udtkK1Vnzc4WLXyBgf0585Vf8uobu/+vFgf8t87fOdvoegMzjd/SaNjJqJb+dwBiRfYB2WjepCG58AzGlAAkAAnAanBxYYFjdU2+qrYwLu6bze4UMWvZsxkcv3yPgl+TPzFqAFfUGBWyV2E2O3T7M7KT8LX8z6qt2wcg1iqJcV5XMLLfGT6+j7EkAAlAArAyCnxTms4/ORcuiY8p5p6xmBKAJXLxPkV9EDEqhB0b1pmBze8dHb1gO6Mau/MAxFeMujYyfow9/pvxIwAJQAKwOmz2rLgTP9I3GJVCGpIPPy1g0cC3jOaNAJydJJ5T2GU8aUhFfWWrfF18ab64pObuPABxa/EfbAhAEIAEYL33/ft36TfAFzMLON2TzXsJwNl6bFFjNHOfozALBCABSAA2FgFIAOZbEfyxpCPVimcLQvL7sXornTCah74HIDOAxoVPzPKsZxCABCAB2GAEIAG4KN6joPFZpeTi7Y1K58MHi9i70Gh+CMBZScLpBY/TW2axQAMEIAFIADYYAUgA+vR5BY3Pp4z6woULC3g+qzU6tZXRnBGA3dws3y5Ukv7zthM+lh1odAdAABKABGCjEYAE4A8K2j3/KUZ9UdSs5qKQGM0ZATg7x05tUeI5wNPy8ev2OH77c3pBABKABGAzEYAEYLZAw4f1Bd1rdX+jvhhOTyjoOS1nFXBpvmvaffCb21auh8fme1cOLAKQACQAG4oAJAB9vF+B4/MZJfE9fVHYecbxfUZzRgB2IT61GufApv+87XWVLpWfOE7SkAbliwAkAAnAxiIAmQG8tKvni1+xCKQkbvLkir4Grpr5IPC4mp7xy1nABCABCAKQGcDw2m6eL9KV85oBIgC7k4SvVf1oMPPB7Bd7fjxYoxCABCAB2FQEIDOA4YtdPmeMhL2N5oQA7E4ycUZtXhcu/lw+PrQOIUgAEoAEIAhAZgD/YtooaSUwATgH8a01e438Qi59dJU3m2YjaAKQAAQBSADe1OVzRhLPMZoTArB79jOWLcSo4e0CP6jesXMcBUcAEoAgAAlAaUg+rOv2OSM+jlXAJXPxAfY4bdo1s0Y+fXq+gXjN3HkAYlqnj29p1BUfH8rY9T8AQQASgC5uPYfnDBcuZB/APkjCU2q8eOiXWhSONqoTAnADknisUVd8mGLs+h+AIAAJwNFlu83pOeNitoEpXT5j/QrTrqkb5eO9jGqDANyA9HKjWcpfvz9l3PofgCAACcDhdM85PGe4+GSjOSAAexKB8ak1vRycWWHuZlQLBOCGXNvV+z+XfwlAApAArIzk4u3n9JzxNGYA+8ylZ9njVaZdQzfLLTvKqOI2GoCIn5vVvYDZ5X8frme8CEACkACsBtumgjcdArDWq4NdfF1+lnXN/CS7B5eTQBrhG3LxsA2M4X2z2ULGiQAkAAnAavHpSt54CMBaGxk/xh7fZdbUaxFBeIpRtRGAs7TGvMM8Sq20pSS9p1xMK3ySDQEIApAADNeYNgjA2nNxX7lwhZLw4/rcD7jsQKPKIgBBADYWAUgA/si0QQA2iouH2ePFMzMwa6u7oCh9gVFlEYAgAJuKACQA4/sKHJ/fKwmfbRw2gq6TfLHTmZ3Y8ukPKhaE12vBkm2MKokABAHYUAQgAejicwrcKPU9RuAouEoZvWA7JZN3lQ+XyadfsMfVpt03tkjAqKIIQBCAzUQAEoDpuQWOz1WShsRX/kUAVjYIOys132JuNu2SvYJ9AMsGAhAEIDOACwsdn+H0BCN0lBGAPzXCHGVn9rbi2dnsdYmrir9PAJYLBCAIQAJwdGoz+XBjcWOUPs8IucID8HdGPYBWPMQev1LC2dK3VHamnAAEAdhQBCABmPHpxwscoxvyMRLKCMB/GfUE8g9IHzTtQp160V5GlUMAggBsMAKQALQ3+Ubf45SkR1ZmhmVkfPfCN6RdsGRzox5BdtSXD7827cK0Jo8wqhwCEARgoxGABOCRBR+uP92/lY7xLp0Nd134YiV+yQ6P71D4a9JOxjBqvCQ+Rn78UKPihceadmEWhVOMKocARP0DEARgQVw8LIvAitNGFX+v09Wln3qQBZ8PfzdtY9KV5nIdO7WFUR/klxTbhbIwMmqwPMimzT9KWGiUv5baBTqJRSDoLQIQBCAsOow2yKKhhFj+Q2kzNlkUJOk/N7BS1hn1R+HnL3/MqLGSeI49rjPtGTfKxQcYFWiXQv/OFi892KhyCEA0PABBABKA2WkEPtxg2gWzPyM+1KgwLn10trJyI9/HeiXhZdklWaNSWQgXPMZrlcRjjRrHtmi5k+1Zps2zs/v1jHrOZugG8lYSAhAND0AQgASgmTnjtl2O+FYNp3sa9Uw2i5KkH+jye/mbXLi/UWl8+GoJ4/t1ubi1UWMsiveYxezpz+TiQqPeClcU+Pe1SmNjmxpVDgGIxgcgCEAC0ISd5MP1pl2SG+TCM7R4cn+jObMtNLJzXud1aTULx2TpPkaFs/gtaXy/JBf3NZo1TW2S3yNZKa20lc/qzsJ6ufCm/HU1b630APlwlWkXI/2BUSURgBiEAAQBSAAaHy4z7ZKtkwvvl08fOcuFIvkB/w82bzErehWk5vwsgowK49NLShzbFdmlbnN6duSZ0e11wtdmQTv/Ox/+ms+gVYZPT53jZuUr5NJXzutyeGvyRPnwC9MujMWqUSURgBiQAAQBSABaJOQrZ/voL3LhE52ZsiS80B6fJR9eIhdfZ4+fMn8004VePi3yHjofzuzj2N5k/mh+n7nDWTU34Y2qIR4vH66Z7zZE5qud8Lag22jg2+XYzhj49A3yYXUJl+svMKokAhCDEoAgAAlAk4QHinFb0wlPOxvWqIfyS4rtynLxNKM+y/en/FcRs6LmhzP3i776ttsHwrM7HzCS8Nk8OEuyPr/1oJoIQAxOAIIAJAAz+WIK/FZu4u5GPSMN5fdaVlL+fPsnj+Q/mXbDfdWoItgHEAQgCEACcOk+eaSggJNMXPhihWcA72PUR/vOXKJuN198nBGXgIFqBCAIQAIw49Kz5MN6xjD9Zs/P1/Xp5ZV9vrbXnlFfZGclu/jzAXlt/any5zYTgBjAAAQBSABmXHzygI/fPzQ8vp9RD+VnFLcrKQkPNCpd6/yd5cOP+v38mf1jBhAEIAhAAjBbMenjRwd07G7NQs2oCJWNnSSeY1SqE5Zvm2+QPRCS8LV8NXKlEYAY0AAEAUgAms6JEj58fsDGbZWScLpRcdInVDROHmFUKh8+bNoDwYVb8jOxK48AxOAGIAhAAtDkMzRfHpT4K+U+uOzcWh9+U8Hn/1ijUiXxWHv88yAsKMoDuxZ8OL+kcQE+b1QiEIAEYFebRLvwkYaP1w1qhVGjUvh4rwrOAD7RqHQjYW/5+L2GLyh6ulFtuPiAksYGeJtRqUAAEoBdkIaUxP+UD+saOFY/08j4MUal8uGNFRuH8436wo74y8ejgV6d3/dXG8MTh5cyNoD9zjZCxdTvmy4sAAnAnA93y4+Ma4TsFIgFS7Yx6oNtlIQfV2iWaqICM0/3kQ9/a9CK32dJGlIdv3z4VeHjA+THb6JaavhNFxqABGAu7CQfXmumazw+N8rFhxv11akX7ZXNQFZkTCaN+s7FXezx9fWebY7XKUkfYlRbLiwvdIwAF75lhAqq5TddfAASgCafDazhLMG0eUt235lRJQyne8qHb1dgBvASo8pYFI5WEt9Tuw8aSfpJLZ7c36jG8l0A/lLYOAH5fdeonlp+0wRgeQGY7xfo0jH58Lvqj0n6A7XSllHlZCdD+PC0/s56pZcbVY6bPFkuvFs+rDbtCvtNvoq8MRaFRD6s6vlYAUl4rhGKxz2ABGCxjp3aYmYRwU+qN+OXfqFzOW5sbFOjSnPLjpqZ9Wr3wZRRZXVuPYhLKriR9g/l0kfnx7s1jk8fKR/W9HC8gHdV/P0YNfymCwtAArALyeSizuIKH27s4/O/qvMJszV5hFHt2BjOhODaEsfsMqNacHGhXHiGfPipaffBNUrCy+zRGTWei6f1YHEOsNpcVszCKL748sv3UGvyRHSor7JZQTdxd/n0eeaXBb+xrDPfVhKeokUhyeO39rJ7yXxcJh++Ydb3eMyuNh9Wki7Ntv0wqqXFSw+WD+PmXeaPpl2QXykJL7THu+WzfQNmm+w+0Tnc7gHcYN6Y/awaofoYAPRWFucuPasTaT58yvzRrJ3jcW0/7vzCT9IrlYQHauGFuxo13K6dbVJcuEI+vi8LXvOPjSySWGH+2jmD1sarE+NJfIyS9EijRhoZ310+nGkulk9fbj4uH342yxnpW81fzFfk0zd0rijYmJtdjGYg2zfTx4fKhdCJwtsDkvSiznuNzR7X8AMTGAQULpupa8VDOqvBXDpmHm3O/Z83kniBPT6pczJBEkeymarb3TsCaUit83fW6LLdOmOZfcq2f38ns6CwmazO+NhY/e/x6qx6Je4E/Be7daARQRTFcfiggAhBAj1AglXtzAwWoRBgXyFUdu4gCQh6iZ6td9nuA+zGysixH74/wOXi+IEPAAAQgAAACEAAAAQgAAACEAAAAQgAgAAEAEAAAgAgAAEAEIAAAAhAAAAEIAAAAhAAgPQBOHs7jnk5Z4Pr55MqAAC2qpNPV96jLWs2Gb+qAADYqk4+AlAAAgACEAEIAAhAAQgAIAAFIACAABSAAEAeAhABCAAIwL0hAAEAAYgABAAEoAAEABCAAhAAQAAKQACYTFfuoxmWk1l8HFTBjurkIwAFIABJlO9qPZnF01EV7KhONgJQAAIgAAWgAEQAAiAAEYACEAAEIAJQAAKAAEQACkAAEIAJCUAEIAACEAEoAAFAACIABSAACEAE4O+Gz6jvpNOMd1X8PwAQgAIwWwBevZ5W8QcAgACcngAUgAAgABGAAhAABCACUAACgADMTwAKQAAQgAhAAQgAAhABKAABQAAiAJMHIN3LWbSri+iHPvrxIZphGfPxNtrSxM1wufeHYfZ4GP1qFu34w949gEmOfW0Af9e2bZvdSWrmW9u2vdt9b3r4/bm2bdu2bdu2Per839Rkvd0p5Nwk1Wee5/fUzKNJVaWSN+fee+4u8O3+COw5/Pvt/PuL9C7//iVfv6KIhif/fgOBfYavd8CzZ8ML9+G/d0K7XRLYe0xCHzdm9Zzzzc7w7X/paDoXQXjpr3x7Cg1Gv45pCH2ZUhoAm6cBUAOgCsKl4dt/0jUIzEc1fp/vIrC3McwciKBreazeMR6hJS2399jwOleEHx4D3z5GwyjK0Bf8HK+AH+4Bb8D8hD5hob3HRWA3gG+vpq/r+LwWJ/wNpZLzKlwIvtmQr/+AHx6cPDyMfqDwzUWj/20Ojx/EaIv4ga50gUcDoAZADYAlEtjV46qRCM9uTqgZq3zJd/4iRRn4gS6DZ1ZtgYpWEvrMWtXqHgMaRQ69n1QVN4tvZoRMtNsF4tAuhlViQqq2jknhh/vBt59QVLf+e81BSMQV2Qnh2RvjY3Aiz+tYEPZz8h79cHtCKcTXm4ppS86pJ2gERQ16FYE9vjrysejAiQjOMKzW9x3ZHymSY+5s+jziNZTQp5TyoDUAyvPNDWKfrRe+SUhVCees7m2cVLGEvA3P7BqHKEKpBGY++HZveoeiAvi4WsFgYCc0p6td+Fi3JvQoPh9Y5UwPfikqu09B+APPXuLuOzGdhHzYUygSllJlNSfIhc9wE0INkgcJMwS+/ZAiAcPo4ngqDEGcby+kqKUE4W6EvqSkB64BsKUDYHyx9MxJSJ6OHXkxrggSCi8eAgrMTcW9mJqf4iHopn5DeQbAipkVgb0/g/+jGxtvPBbhD3iTdvhdPERwDhgjrg5TJOwxQi8eo0jIYEKvWJlLqn1fUeTIU7QdknNPgAZAARoANQBqAPTDVXKsaHVXgwsXThAKhxW/ZIFBN0Ul8AMCexiWGzA1oS75BcCNUub41eNbN8EkhRfOTXCKw5yFuGnnGQCDzjXiEQaKcvJydVFcHMaz/qMBUAOgBsCsaABMKgZ7FyTc3IPl7OSEQuBwZDJ89DNFJfQp/HBdQo1yCYDJqt5RFGXkXcLfC7d3eGP7B8EpLrhy8N5+TPmd5hMAlxoyWbECknkonlNLyIwGQA2AGgAzowHQt0dQVCDPo5+dgZArrhAUvok5FJ5a82R19wGwQ+Dh4znC34pXoifzCx14keCUF77g4H2dSyjUEDBbJfH1tSJOy6AhWQ0LawBsngZADYAaAIEx+HpoIS8IvImlD18K8sw28YW7xS60T6N/1yyEXrgNgFz9J1R5vo/Qo8Ac5PBcXoTghN8xl6P39H+EXrgOgFuXoEp/B7xwSkIzNAA2TwOgBkANgL45vOAXhkec95j6bTg8alHvwh8wG6EH7gJgu51dsHXO9YTeFps4W+jEIVmCE344wMF7eqOGuW3uAqAXmsanDzj3ejyfmNAgDYBN0gCoAVADINsolOTicBnBieX2Hh+evdb9e3RqWNysmtADNwGwuqOHfVTuhmIuIPSKTbUdfebvJIFJ/o9v73VQ/RtKKEgF8L8Ulczn8MJltQKoAdA9DYAaAJfdcyq5OVACkubVothIuQ+Ev5EIzKaEXrgJgNzeTnje1QmEXlXscu7O4U6fIIq/awdVzRE19pqUD4CB2bHEv8WvUOlajFA3DYD50wAoJ2lAfHRJHEHIkGwA5BZuSTuTqES+iG9uBBFx6xnfXkNRC+uOV9oSUogHwKTJ84eFGHblvsuO5swdRxDl2+0cPIxdS6iBcAA0D8mHXXHvx9MgyrsKWAOgBkA1wkUAVOHBBBnmzJb//IIwJNRGvAI4rDjDlOEuztrxSO94E5grpd9HfS2FagiA6vl4i0JCzTQA5k8DoHIaANUPIlMDfLs7RS1ub0LNGAD7zA3FCyeI52Q5eohZhSAifh+e/V56u8G6GrXXGgDVaYQ6aADMnwZA5TYAKvMvQmYqpq3EDZ7lhh7LHwAp3IxQk8Ae5ui4ziJISNrpRMIOIdSongCovHAL0kUg5acBUIgGQPVORs1Uk31C7VsUtbAzGlp92hIVQLs6oSbVtjh2pIPj+iau1AnN/ztN+vjr29GivgCowi/hD5yWkE4DYP40ACr3AVAFXcsTmuaZI1v8s7qq4Tln+QdA96tunS0CMhsSMsWWOvHiLuFjv5cgWQFU5kxCKg2AJaABUIAGQBUeQ2hKEC4tWPHJX2Bvi7c7IzSkFQJgv44FCTVrD1dydP5eTsiW9RzcoLcl1KH+AKi60W4DXQVcfhoAZWgAVG8RGpTs9BE+3sKfz33pqwpTtEQFMJypgWHU55zsC7vUkMkImeEKeeHj/q6hHXkaCYDqQV0EUh4aAFVrB8Dq0JK5M+kdeFbyenPcUDrHm/vchIZwCK4An+vH8Owlo1uVmG34un7SoHkv+PZEerTBCuUTmYSLVgiADQSWpD9h5Lia1jzfvCR8zKcQWmgI+OskaF0NPzyvek0LzE3w7YuF6C0YmJUJPUmaqJ9Sh2/kh67tKc0x/Ql9STkPWgNg6wfAajsJc3jqMFolnDPZT3iY2+Mz2xDqFi8g8e3z+Z0n5iJUTCWes0XoTbKrw3Z0T40X4Zf4nUxDaFJZAmB3PHH+N/YrihIjG1r8wtCYhINI2M2ETPBhSPx4G9u2rGgB8EEek0ndh5fbQVanAwT2qPhBLacpHPcTMuPb1wv3sKVQzoPWANjqAfAe9N9rDkLNeFF1erH3zEmEugV2y9wWZFS65iU0xDfLxPP6eh0Wb+uYmdC84gXApMJ1bHX/6jazaI9D3PEK20rnUvBNZxMPuEc52ZKvzUxHaFpgBgkf63OEklYAu+li+J0LE+rGnofVbSiTCqtTyVzA5mkAlKcBsPw0AHYjCP+RXp3qAW/KcXh0FVIJDXiCIoe+qasfXYpk79Pv/vR/fJg+JF7KPoAjq1tCel1LEJzxO+aCb0c5GObbi9A8e7/waIAlNCTfAPh2ZiEqHjnw7EDHPUPPJTRPA6A8DYDlpgGwG57dgdCU5QZMDd9+4mJeIqEurAy5nztpFydkKn4fv7X8+AJeuAihpQJgvD9vu12S4J6r31/4AKE5A6cVXs0+rKlpBQyAOQ73TknIUnIN+ZAiB37M7D1oAJSnAbDENADuT8gEKxtOjpmNnAk1C+zJDocsf0rmTUFEPDfTt+82WuFIkXMADE+N52ERcuOFqzl56EqmWjSMD23C1b9LCKWqAMZTJZJrg4j4O/Pt+44WuxkNgCWmAbAENAC+keEN191E+nY7O6EWyX6v3zhcRLMnQZRcSMovAAbmP4ScJa2C7MsObvBDm7yxX1PsvYtdB0BeN5P+l6JYdXew73LsqdIOASsNgCWgATCwGxAy5dtT5I87XJpQE97InFYg4gBR3j/5BEAuviAUhm86XQx1ExqRPNT8IHh87zW97aLbAPgsgsGTENwId3P0vhbXAKgBUAOgBkDnT5iNc9Brz+tckVCTwBzkrL9YxcxKKDXXAZALGdK3rXOMYcJN1bihFaoUrit8bHsTmuQqAI50vVgoqRJf7+C3cZi2gSkhDYAloAFwO0LWkh52o4qz2b99xFF7ml0Jpec2AP7c8CpmeccVd/6tOVN0fiJ7fBKa4i4AnkJwjrvN8PVHigQ9oRXAktEAWAIaAD8TnUfm21eE59mtR0jFSo6jfX+fSG+hUxIuA6BnjiQUUlvnPA5awrxR95QBnmfCTYpvJZSkAjgybt1DyAXPX/H3t5ydnNAwDYDyNACWjAbACwliPHut8PFvREjlrP1LuC6hJbgLgKMaXwnriG9voUgUP29CzSqmIns8ZlNC01wEQG7jRsiPmc/BQ9JahAZpABSgAVDWPfFk+nIwNxEy5aYP2S6yIcIeVogAyN0jHKzmfLOhhR+6COQaQqHx5uvgt3hMgX5bn2e2ktZJBdAsQ8iXfarAq8U1AArQAChpmUHTE/osFwHQGzA/QYxvOgsSAP/hfh5XybkKgIFZh1BoDPbS0xnok7oWwcgez9GEkgwBP03InzlBOACergFQA6AGQA2AmRFvtuubrZwHQPeT5ROmP6FluAmAw0pz4/Btl3xfy3AlQjq7gOhxVLoWI2SCATD/ypgDQbit+IiYLgLRAKgBUANgRr4liAo61yhCAKSr5VtQhBMQWoabAHgPoRTiSfjJHsyCziCkYugRPIZHCRkSDoCdPiF3wqGc3tEAqAFQA6AGwKy85WAYcfliDAHb24SP412CDgHX7QhCaXjmJOHP45uaqvK+eag0bYxkA2B3YR68ltplQuFz4ysNgBoANQBqAMzKq30mAHLTfeF2NA8TWoqTABgOIJRFsv9yd66tjdrMdIJtaX6sv91ICtkA+AGhOMxPBeo0oQFQA6AGQA2AGgDpaeHjuEMrgI0wWxHKxd4hHAAvIfTINzsLNlY/h5Ap2QD4LKFA3i/snG0NgBoANQBqAOyjAfB5iorWNFcDYLgZoVRYoRMOxT+hrWNSwt/yw+vKtZBJNAA+RigQ2ZC11JDJCA3RAKgBUAOgBsA+GgAf08UMGgAzsfHGY8U9H4U/m60Jf5bMM/uBIgGvCPSxlP7tPU0okC8oErPQ3uMSGqIBUAOgBkANgH00AN5NUesPRWkAdMMOFh4GvpHwV+H6gtW/IYSSVQDfIhQCt+YT3m5ylM4B1ACoAVADYL00APKGKr56UwNg3wmAld2niCtxshP+B05L+APPni32/wV7zUjInGwAHJHePNsRL5xS+PfygwZADYAaADUA1k8rgJdRJKpiZiW0DA2AKexpFAnanZAYPfTs289KuB2fYACkNrMoIXfJ3szFWvGsAVADoAZADYAaAI92sBfwFoSWoQEwRefCwi1h7iX8xvQv43Z88o2g7Z6E3Mlve/moBkANgBoANQDWTQOg6XQQZi4ntIj0APg/9u4CuHUdjeL4WWZmZmZsLaddZmZm3m0r6fJjZmZmZmZmZmZmZoZPaTWwu6+3TixZcs6d+c28wec0TvOvZEkDH4COOSboJsfD5p0CXcqsEej/c7MsLnmeQBASgAOxBVNptgl8ZvaeAj1jADIAGYAMwIEIwPhH0jkPu2fDBFqAATgj5qeBf0bzBKZcGigsVhLIdQRQPIHRsXcJNEqZi8MGoFlfoEeDGoAMQAYgA5ABqD8QIQCF/fsAjQAyAN0CBGWuDfgzOksApf1IuCnU2R8UCCVCADobCjTok+KppKe6GYAMQAYgA3AgA1CmuCIc5O+c67aDEMgcA3CmSrto2JEf+xGxaMb7V0YIQP2QX8XcCKU3CP4ah00p0DMGIAOQAcgAHMAA9A6OMgpYmD/zLOABCsAvzn5t0DNgS7MslDklzL2qfy8QUKQAFIVeUyA69z2lzIPBp7n7C6zwAdjT4y+U40VnF4AMQAagv2cjuNs/vJ8vBmA1ZquAP6dHA602vsedLCIQULQAFI9g2HxIICqlt4zw2i5M/pi60VlvE6iGcrzozAKQAcgAjBU0nj0d5byXCWSKAVhFMetT7vVkpTQbCwQWMwCFPsmvaI6iY77o4zyowq4n0IfwASjbIglUQzledG4ByABkAPoH9m+M+CV7BD4+5yUCQckUZIAzXBmA1Z2QVwTqzwkEFjMAvbUFwpvzer8AKILvCPQhxirlHwtUQzledGYByABkAHp25chfRqfi8/95jUAQI+OvQ2EvgNKLC9SIAVjdL2NHXAZnV8cPQD9iFnIxlltwosx5kV7Pw7UssFD6zMDXuZRARZTfRUcKwEL/w/1SzVofX/4MwAABODTxPj9lE01pzkFh3yJQq5HxD/u94cQTKPR3BerBAKzIrzS/PpPRvwmBdo4AenpLd3yeQI38llLXRHwt+9f0nX183JNKiAFIhUBvGIA1B6B3dAP3wW0ozA8F+uZGNko9BmXu/e/FJ+7LSaB/DMCelHrJDH4nPeIeGxCIorEAdOzhtW4P4z7DytwROWR/UlOI7x38WuWPUoEKKMuLZgAyAPMNwO80dj8U5igM26/2OD317O5zNsqcPc2XxUUYGn+5QJ8YgNX558IeFk8lbGeB2FPADboDpZ6Lwr5IoCfdUT+7ewPXfis+svTzBfpWmvWjBDfwLLT8H/8xABmA+Qagc2Kj90VhrxSrup/P9KuF3eiFRF+hN6qwgGUfF4vcCLopZvu0V//qrwnE4gOwefbO7rOBpR1xC8IEpiWfy8k/uOx+7hGLhq57DYFaFHZBpP0YN6ry+4dyvGgGIAMw7wD8ckL3yJPimsmtY8xh7gvTLezo6+SSwi4j0AcGYK86E59J+PfRtf65uGh8AKblbnGEC8KpBVQT3VFCZZdDYbaeuuZHGp+q7+i3C9RC2R9EvPZToOzXZxSCbv9Ad8xdab7FVcBcBRwDA5AB6Bza4vvuSRT2RwzAZgQ7uSPPlZq9BSBtIlCf8fc0Mf0u9kJp1kJhloDS87sKsyJKu6tfxNZVWiswcPK8cAYgAzDzACzse/0RTi11Xx+bszIA+6J/m+D98ATU7HcIxMUA7MGjGB17l0BtZDTOzyokah5XAUfAVcAMQAZg5OdiGnzWsMetiBiA/XAP7pf6psTuh4MFchgBJLvOYI1Mi9IuyhHAWDgCyABkAPrTQc5q9T1Y6oN6eO6LAdiv0iyb1h8D+mcC0TEAq7oZXzSvFKidMptFuH5uJM0RQGIANhiA1TeHvqvlEbgS9wGMbMS8yU3lJXIP3I5vjb9AIDoGYDWl+Y1AGPYPCY96LicwcDK86PYEIAOQAeh07Pf8Vg8t9WTF2GIA1sLsnEhUrCXQBAZgBYU5MOg+enK8qj8JKT12ZQZgZAxABiAD0LPLtfzL5X50Zn1CYEYYgP0bNmUS771/3+NjAM7cbW7UWCAoZU9I9PWvwSlgTgE3gwHIAASe5XfLb7GrMTL+OoGFYADWpvEAOkWgQQzAlJ7RLO3P27/wJT6OABIDMOcA9BGozIYtX2F4+AxOQmAA1sb8seH3+++pBzDpFQQi8AvfLk8wgDcSGDgZXnQ7A5AByAAUk/tl6Q1aPtqwpsA0GIB1cYsvlLmloff6Qb+itDEMwNTCxz/z/FRiNuMUMKeAm8UAZAB6pR6DMo+1dqsJ2R+Q+wBGUpgVG3qftxJo9RRwYU5252pnujp/h8bOzS31nmmFsNlaYODkd9FtD0AGIAPQs19v4RYx52HYvFNgGgzAOhX2LY1sCdPRHYFGhQ7A0hw/dcrF3tlt9txU/Dmdf70KylyR0M9ke44AcgQwIQxABqBwB7Irc0hL7sfd8Jn5rxBYCAZg/XaP/F5fAuBZaPpfhAAUQDnvZVDmmAw+g49D2X8LNM98UtyRyAjgLhwB5AhgWhiADEDPrdJT9s5sp3yr/awYgHUr7BcG9GzVSAEo3BF8yuyY8OfwGncfCCTCR+BtCUyH7ykwcPK8cAYgA3DAAtApx948tUDkkUzuvwfEGm66R6ASBmAA5uxI7/tjfk+5xsUMQMdNqxZmCTflntzzfn70PTWjs96GwhzV8AjgvhwB5AhguhiADEDPPUOnzBYJh+CDYm23879ALxiAAZTmr5He/70FBmoE8L8Nm0+7512bn9q0V0LZHwgkzO9+MOGODWzszHKOAHIEMHkMQAag57bYUPbv7ksokfvtEig9H1+c/VqBfjAAAyjsx+Is/rDfE0hCUwHop4QLYxqKmgdQ6iVl370XCmTDjVIqs3z8ZwPt4dwIOh9udeSGC0GjY+8S6Il7KFbZOwM6XSCoju4EfQ2l/r5AErpf7npxKHOieDziCMMFYtXaV3y6e1eZTcLSnxMYHBGOGyz1TX6j7wQ0G4Ce/KE2FTXXRfhM3oDSLur/CMvWx+e8BMr8C0qfFPj84GvFZij11zgCSET5c3vslfoX3Q2XlTnWncNb0y/LJ8T5k9PP+m9+OxfKAPAsNx0Y4VmqFQVS0XwA/tfzgaUdcUc+1nwaxm1ix+5n/jN/f55AqwyNv3Vq5fJ2UObiPoLwYXGe2ET8EaX+gEB7MQCJ6Gc/ew6GzYdQ6O+iMP+Z3LhW74TSHAZljpscjTWXicun/vtYcbDYqjuNpPRvUUwoDI2/XICyE+NxCOdJDE28TyAZ0QOwgu7iB/37ySC0h89whPBmcTSU3VTMRmk/6/fzGxhf/PdLUdqPoLDfhLJ/Qqnndh89UXblSWax7vOEhflzd5amM/EZDOk3CNB/afkLJCIiifkIAXi0QGLiB2A/3NF9I+OvQ8e+24WL/PeHuyPtbiW9e6bwI0+3dw+wstxRAIdPbbsN6rDmzq0R1ratnalt2whr221s1rZtG+f5heXu/c/ud5Mvd63oNzwnxv8G/AgAA2yFvWaMqv66DwG4owBsD/ADDDaA7fsQf1+OCc0UBRnSAAQBCEBVP9r7gz+6V6QozBAGIAhAADrNQn05LVAejJCiOAIQhi0AARh/KqA/euzpFKPMPoAgAAEYO4+3qr/vfQB2D0pRJgEIQxWAADS39mHt309FT50QgDA8AQhAd+s+xF/q3pRiNFkDCAIQgDyB8ITxfz03cvCqKQo1BAEIAhCAMeP+qubzvsRf+fHTkgAEAQjA2MH39S6xxgGLpPhbqroTVXP7hEH5fQrAzVL8VwIQBCAAVffxySLjrXRz3n5yBt5e+X+PsQPwq/rg/H9KjHTvzMsfpj/67NXYcsupUhSsJQEIAhCAqv4i/VG0Tr1/iuIJQBCAAMVbq5699PhLH8fSh86UongCEAQgQPE6By9X/tq/5sgUrSAAQQACFK/TbFp4AH4WI4fPkqIVBCAIQIDiVfXBZQdg99gU/x8nggYBCCAALy44AL8cs49iitYQgCAAAYrXqe8tOAAPTNEyAhAEIEDhqvqZQk/78mBETBFt+xOAIAABilfVXxcYgO/GWofMnaJ1BCAIQICirX7gPAXG32/ROWjdFK0kAEEAAhSt6q5U4Kbf41L0hEkgIAABaLYqLACv7+V+f/YBBAEIQFUfXtCavztihb2mSdFqAhAEIEDhAXh5IQF4cz/iTwCCAASgUz842gd8pBNjyy2nSjEQBCAUHYAAVN0XRjH+3o6R7vopBooAhGIDEICIKaKqv+9/+HV/SKfF0ofOlGLgCEAoNgABWL1eoM/x902+7zlj3jfFwBKAUG4AAnDwqn0Kvxej6h4UKxwxW4qBJwCh6AAEYLWDVoiqPiY69b3RaV4fe1DGfwuUn9ITMVJfk9G3Z3SaxVMMFQEIrQpAADrNDFHVy8ZqzYb5f5eomkMyDk/P/2fm/RfkbVfl/0vHXq/qE/O+Q/P/jjFy8Nqx2sFLxlonTp1iqAlAEIAADF1ErxyrNuv1zEizYopWAj8CAIAABABAAAIAIAABABCAAAAIQAAABCAAAAIQAAABCACAAAQAQAACACAAAQAQgAAACEAAAAEIAIAABABAAAIAIAABABCAAAAIQAAABCAAAAIQAAABCACAAAQAQAACACAAAQAQgAAACEAAAAEIAIAABABAAAIAIAABABCAAAAIQAAABCAAAAIQAAABCACAAAQAQAACACAAAQAQgAAAAhAAAAEIAIAABABAAAIAIAABABCAAAAIQAAABCAAAAIQAAABCACAAAQAQAACACAAAQAQgAAAAhAAAAEIAIAABABAAAIAIAABABCAAAAIQAAABCAAAAIQAAABCACAAAQAQAACADBMAQgAgAAEAOBPu+YOJ4pkW50AAAAASUVORK5CYII=;imageBorder=default;" parent="1" vertex="1">
          <mxGeometry x="278" y="246" width="80" height="66" as="geometry" />
        </mxCell>
        <mxCell id="Wp2VC6QCwjRFlCdOOu6L-36" style="edgeStyle=orthogonalEdgeStyle;rounded=0;orthogonalLoop=1;jettySize=auto;html=1;entryX=1;entryY=0.5;entryDx=0;entryDy=0;strokeWidth=2;dashed=1;endSize=12;endArrow=block;endFill=0;exitX=0;exitY=0.25;exitDx=0;exitDy=0;" parent="1" source="Wp2VC6QCwjRFlCdOOu6L-28" target="Wp2VC6QCwjRFlCdOOu6L-35" edge="1">
          <mxGeometry relative="1" as="geometry">
            <mxPoint x="487" y="470" as="sourcePoint" />
            <mxPoint x="368" y="469" as="targetPoint" />
            <Array as="points">
              <mxPoint x="400" y="420" />
              <mxPoint x="400" y="280" />
              <mxPoint x="358" y="280" />
            </Array>
          </mxGeometry>
        </mxCell>
        <mxCell id="Wp2VC6QCwjRFlCdOOu6L-38" value="" style="sketch=0;pointerEvents=1;shadow=0;dashed=0;html=1;strokeColor=none;labelPosition=center;verticalLabelPosition=bottom;verticalAlign=top;outlineConnect=0;align=center;shape=mxgraph.office.security.lock_protected;fillColor=#DA4026;" parent="1" vertex="1">
          <mxGeometry x="1110" y="620" width="20" height="30" as="geometry" />
        </mxCell>
        <mxCell id="Wp2VC6QCwjRFlCdOOu6L-39" value="" style="sketch=0;pointerEvents=1;shadow=0;dashed=0;html=1;strokeColor=none;labelPosition=center;verticalLabelPosition=bottom;verticalAlign=top;outlineConnect=0;align=center;shape=mxgraph.office.security.lock_unprotected;fillColor=#7FBA42;" parent="1" vertex="1">
          <mxGeometry x="390" y="730" width="20" height="40" as="geometry" />
        </mxCell>
        <mxCell id="Wp2VC6QCwjRFlCdOOu6L-40" value="AWS Cloud" style="points=[[0,0],[0.25,0],[0.5,0],[0.75,0],[1,0],[1,0.25],[1,0.5],[1,0.75],[1,1],[0.75,1],[0.5,1],[0.25,1],[0,1],[0,0.75],[0,0.5],[0,0.25]];outlineConnect=0;gradientColor=none;html=1;whiteSpace=wrap;fontSize=12;fontStyle=0;container=1;pointerEvents=0;collapsible=0;recursiveResize=0;shape=mxgraph.aws4.group;grIcon=mxgraph.aws4.group_aws_cloud_alt;strokeColor=#232F3E;fillColor=none;verticalAlign=top;align=left;spacingLeft=30;fontColor=#232F3E;dashed=0;" parent="1" vertex="1">
          <mxGeometry x="200" y="380" width="143" height="130" as="geometry" />
        </mxCell>
        <mxCell id="Wp2VC6QCwjRFlCdOOu6L-32" value="" style="sketch=0;points=[[0,0,0],[0.25,0,0],[0.5,0,0],[0.75,0,0],[1,0,0],[0,1,0],[0.25,1,0],[0.5,1,0],[0.75,1,0],[1,1,0],[0,0.25,0],[0,0.5,0],[0,0.75,0],[1,0.25,0],[1,0.5,0],[1,0.75,0]];outlineConnect=0;fontColor=#232F3E;fillColor=#8C4FFF;strokeColor=#ffffff;dashed=0;verticalLabelPosition=bottom;verticalAlign=top;align=center;html=1;fontSize=12;fontStyle=0;aspect=fixed;shape=mxgraph.aws4.resourceIcon;resIcon=mxgraph.aws4.route_53;" parent="Wp2VC6QCwjRFlCdOOu6L-40" vertex="1">
          <mxGeometry x="32.5" y="40" width="78" height="78" as="geometry" />
        </mxCell>
        <mxCell id="Wp2VC6QCwjRFlCdOOu6L-41" value="" style="endArrow=classic;html=1;rounded=0;strokeColor=light-dark(#2875e2, #ededed);strokeWidth=2;exitX=1;exitY=0.5;exitDx=0;exitDy=0;" parent="1" source="Wp2VC6QCwjRFlCdOOu6L-19" target="Wp2VC6QCwjRFlCdOOu6L-38" edge="1">
          <mxGeometry width="50" height="50" relative="1" as="geometry">
            <mxPoint x="1130" y="590" as="sourcePoint" />
            <mxPoint x="1180" y="540" as="targetPoint" />
          </mxGeometry>
        </mxCell>
        <mxCell id="Wp2VC6QCwjRFlCdOOu6L-42" value="" style="endArrow=classic;html=1;rounded=0;strokeColor=light-dark(#2875e2, #ededed);strokeWidth=2;exitX=0;exitY=0.5;exitDx=0;exitDy=0;" parent="1" source="Wp2VC6QCwjRFlCdOOu6L-20" edge="1">
          <mxGeometry width="50" height="50" relative="1" as="geometry">
            <mxPoint x="733" y="710" as="sourcePoint" />
            <mxPoint x="520" y="700" as="targetPoint" />
            <Array as="points" />
          </mxGeometry>
        </mxCell>
        <mxCell id="Wp2VC6QCwjRFlCdOOu6L-43" value="Gateway" style="rounded=1;whiteSpace=wrap;html=1;fillColor=light-dark(#2875e2, #ededed);strokeColor=none;fontColor=#FFFFFF;fontStyle=1" parent="1" vertex="1">
          <mxGeometry x="970" y="450" width="80" height="40" as="geometry" />
        </mxCell>
        <mxCell id="Wp2VC6QCwjRFlCdOOu6L-44" value="" style="endArrow=classic;html=1;rounded=0;strokeColor=light-dark(#2875e2, #ededed);strokeWidth=2;exitX=0.5;exitY=1;exitDx=0;exitDy=0;entryX=0.75;entryY=0;entryDx=0;entryDy=0;" parent="1" source="Wp2VC6QCwjRFlCdOOu6L-43" target="Wp2VC6QCwjRFlCdOOu6L-15" edge="1">
          <mxGeometry width="50" height="50" relative="1" as="geometry">
            <mxPoint x="933" y="990" as="sourcePoint" />
            <mxPoint x="1000" y="1038" as="targetPoint" />
          </mxGeometry>
        </mxCell>
      </root>
    </mxGraphModel>
  </diagram>
</mxfile>
